<svg xmlns="http://www.w3.org/2000/svg" xmlns:xlink="http://www.w3.org/1999/xlink" xmlns:lucid="lucid" width="2020" height="1575.71"><g transform="translate(-380 -260)" lucid:page-tab-id="LYj5QYEqFL5E"><path d="M0 0h3671.28v2136.9H0z" fill="#fff"/><path d="M460 1097.58h760v625.36H460z" stroke="#000" fill="#fff"/><use xlink:href="#a" transform="matrix(1,0,0,1,465,1102.5839164707593) translate(0 30.933333333333326)"/><use xlink:href="#b" transform="matrix(1,0,0,1,465,1102.5839164707593) translate(349.61111111111103 30.933333333333326)"/><use xlink:href="#c" transform="matrix(1,0,0,1,465,1102.5839164707593) translate(382.90740740740733 30.933333333333326)"/><use xlink:href="#d" transform="matrix(1,0,0,1,465,1102.5839164707593) translate(0 83.4095238095238)"/><use xlink:href="#e" transform="matrix(1,0,0,1,465,1102.5839164707593) translate(0 135.88571428571427)"/><use xlink:href="#f" transform="matrix(1,0,0,1,465,1102.5839164707593) translate(42.962962962962955 135.88571428571427)"/><use xlink:href="#b" transform="matrix(1,0,0,1,465,1102.5839164707593) translate(298.05555555555543 135.88571428571427)"/><use xlink:href="#g" transform="matrix(1,0,0,1,465,1102.5839164707593) translate(331.35185185185173 135.88571428571427)"/><use xlink:href="#e" transform="matrix(1,0,0,1,465,1102.5839164707593) translate(0 182.28571428571428)"/><use xlink:href="#h" transform="matrix(1,0,0,1,465,1102.5839164707593) translate(42.962962962962955 182.28571428571428)"/><use xlink:href="#b" transform="matrix(1,0,0,1,465,1102.5839164707593) translate(175.9333333333333 182.28571428571428)"/><use xlink:href="#i" transform="matrix(1,0,0,1,465,1102.5839164707593) translate(209.22962962962958 182.28571428571428)"/><use xlink:href="#e" transform="matrix(1,0,0,1,465,1102.5839164707593) translate(0 228.68571428571425)"/><use xlink:href="#j" transform="matrix(1,0,0,1,465,1102.5839164707593) translate(42.962962962962955 228.68571428571425)"/><use xlink:href="#b" transform="matrix(1,0,0,1,465,1102.5839164707593) translate(225.3407407407407 228.68571428571425)"/><use xlink:href="#k" transform="matrix(1,0,0,1,465,1102.5839164707593) translate(258.637037037037 228.68571428571425)"/><use xlink:href="#e" transform="matrix(1,0,0,1,465,1102.5839164707593) translate(0 275.08571428571423)"/><use xlink:href="#l" transform="matrix(1,0,0,1,465,1102.5839164707593) translate(42.962962962962955 275.08571428571423)"/><use xlink:href="#b" transform="matrix(1,0,0,1,465,1102.5839164707593) translate(270.3444444444443 275.08571428571423)"/><use xlink:href="#m" transform="matrix(1,0,0,1,465,1102.5839164707593) translate(303.6407407407406 275.08571428571423)"/><use xlink:href="#e" transform="matrix(1,0,0,1,465,1102.5839164707593) translate(0 321.4857142857142)"/><use xlink:href="#n" transform="matrix(1,0,0,1,465,1102.5839164707593) translate(42.962962962962955 321.4857142857142)"/><use xlink:href="#b" transform="matrix(1,0,0,1,465,1102.5839164707593) translate(343.27407407407395 321.4857142857142)"/><use xlink:href="#o" transform="matrix(1,0,0,1,465,1102.5839164707593) translate(376.57037037037026 321.4857142857142)"/><use xlink:href="#e" transform="matrix(1,0,0,1,465,1102.5839164707593) translate(0 367.8857142857142)"/><use xlink:href="#p" transform="matrix(1,0,0,1,465,1102.5839164707593) translate(42.962962962962955 367.8857142857142)"/><use xlink:href="#b" transform="matrix(1,0,0,1,465,1102.5839164707593) translate(238.22962962962958 367.8857142857142)"/><use xlink:href="#q" transform="matrix(1,0,0,1,465,1102.5839164707593) translate(271.5259259259259 367.8857142857142)"/><use xlink:href="#e" transform="matrix(1,0,0,1,465,1102.5839164707593) translate(0 414.28571428571416)"/><use xlink:href="#r" transform="matrix(1,0,0,1,465,1102.5839164707593) translate(42.962962962962955 414.28571428571416)"/><use xlink:href="#b" transform="matrix(1,0,0,1,465,1102.5839164707593) translate(300.4185185185184 414.28571428571416)"/><use xlink:href="#s" transform="matrix(1,0,0,1,465,1102.5839164707593) translate(333.7148148148147 414.28571428571416)"/><use xlink:href="#t" transform="matrix(1,0,0,1,465,1102.5839164707593) translate(0 460.68571428571414)"/><use xlink:href="#u" transform="matrix(1,0,0,1,465,1102.5839164707593) translate(0 507.0857142857141)"/><use xlink:href="#d" transform="matrix(1,0,0,1,465,1102.5839164707593) translate(0 553.485714285714)"/><use xlink:href="#v" transform="matrix(1,0,0,1,465,1102.5839164707593) translate(0 599.885714285714)"/><use xlink:href="#w" transform="matrix(1,0,0,1,465,1102.5839164707593) translate(296.9814814814814 599.885714285714)"/><path d="M460 640h760v418.66H460z" stroke="#000" fill="#fff"/><g><use xlink:href="#x" transform="matrix(1,0,0,1,465,645) translate(0 40.15902777777777)"/><use xlink:href="#y" transform="matrix(1,0,0,1,465,645) translate(309.4259259259259 40.15902777777777)"/><use xlink:href="#z" transform="matrix(1,0,0,1,465,645) translate(0 86.60347222222222)"/><use xlink:href="#A" transform="matrix(1,0,0,1,465,645) translate(0 133.04791666666668)"/><use xlink:href="#B" transform="matrix(1,0,0,1,465,645) translate(225.77160493827157 133.04791666666668)"/><use xlink:href="#C" transform="matrix(1,0,0,1,465,645) translate(255.2407407407407 133.04791666666668)"/><use xlink:href="#D" transform="matrix(1,0,0,1,465,645) translate(334.9975308641975 133.04791666666668)"/><use xlink:href="#E" transform="matrix(1,0,0,1,465,645) translate(409.14567901234557 133.04791666666668)"/><use xlink:href="#F" transform="matrix(1,0,0,1,465,645) translate(513.6185185185184 133.04791666666668)"/><use xlink:href="#G" transform="matrix(1,0,0,1,465,645) translate(0 174.11458333333334)"/><use xlink:href="#B" transform="matrix(1,0,0,1,465,645) translate(117.6864197530864 174.11458333333334)"/><use xlink:href="#H" transform="matrix(1,0,0,1,465,645) translate(147.15555555555554 174.11458333333334)"/><use xlink:href="#I" transform="matrix(1,0,0,1,465,645) translate(314.179012345679 174.11458333333334)"/><use xlink:href="#J" transform="matrix(1,0,0,1,465,645) translate(475.5938271604938 174.11458333333334)"/><use xlink:href="#K" transform="matrix(1,0,0,1,465,645) translate(0 215.18125)"/><use xlink:href="#L" transform="matrix(1,0,0,1,465,645) translate(161.4148148148148 215.18125)"/><use xlink:href="#M" transform="matrix(1,0,0,1,465,645) translate(200.3901234567901 215.18125)"/><use xlink:href="#N" transform="matrix(1,0,0,1,465,645) translate(386.1407407407407 215.18125)"/><use xlink:href="#J" transform="matrix(1,0,0,1,465,645) translate(549.3617283950616 215.18125)"/><use xlink:href="#O" transform="matrix(1,0,0,1,465,645) translate(0 256.2479166666667)"/><use xlink:href="#B" transform="matrix(1,0,0,1,465,645) translate(201.24567901234565 256.2479166666667)"/><use xlink:href="#P" transform="matrix(1,0,0,1,465,645) translate(230.7148148148148 256.2479166666667)"/><use xlink:href="#Q" transform="matrix(1,0,0,1,465,645) translate(302.29629629629625 256.2479166666667)"/><use xlink:href="#R" transform="matrix(1,0,0,1,465,645) translate(359.33333333333326 256.2479166666667)"/><use xlink:href="#S" transform="matrix(1,0,0,1,465,645) translate(0 297.31458333333336)"/><use xlink:href="#B" transform="matrix(1,0,0,1,465,645) translate(265.79259259259254 297.31458333333336)"/><use xlink:href="#T" transform="matrix(1,0,0,1,465,645) translate(295.26172839506165 297.31458333333336)"/><use xlink:href="#U" transform="matrix(1,0,0,1,465,645) translate(359.80864197530855 297.31458333333336)"/><use xlink:href="#V" transform="matrix(1,0,0,1,465,645) translate(0 338.38125)"/><use xlink:href="#B" transform="matrix(1,0,0,1,465,645) translate(172.8222222222222 338.38125)"/><use xlink:href="#W" transform="matrix(1,0,0,1,465,645) translate(202.29135802469133 338.38125)"/><use xlink:href="#X" transform="matrix(1,0,0,1,465,645) translate(363.8012345679012 338.38125)"/><use xlink:href="#Y" transform="matrix(1,0,0,1,465,645) translate(0 379.4479166666667)"/><use xlink:href="#B" transform="matrix(1,0,0,1,465,645) translate(227.86296296296297 379.4479166666667)"/><use xlink:href="#Z" transform="matrix(1,0,0,1,465,645) translate(257.3320987654321 379.4479166666667)"/><use xlink:href="#aa" transform="matrix(1,0,0,1,465,645) translate(374.4481481481481 379.4479166666667)"/></g><path d="M400 280h900v1535.7H400z" fill="#fff" fill-opacity="0"/><path d="M412.05 280h8.04m8.03 0h8.03m8.04 0h8.03m8.04 0h8.03m8.04 0h8.04m8.03 0h8.05m8.03 0h8.04m8.03 0h8.04m8.03 0h8.03m8.04 0h8.03m8.04 0h8.03m8.04 0h8.04m8.03 0h8.05m8.03 0h8.04m8.03 0h8.04m8.03 0h8.03m8.04 0h8.03m8.04 0h8.03m8.04 0h8.04m8.03 0h8.05m8.03 0h8.04m8.03 0h8.04m8.03 0h8.03m8.04 0h8.03m8.04 0h8.03m8.04 0h8.04m8.03 0h8.05m8.03 0h8.04m8.03 0h8.04m8.03 0h8.03m8.04 0h8.03m8.04 0h8.03m8.04 0h8.04m8.03 0h8.05m8.03 0h8.04m8.03 0h8.04m8.03 0h8.03m8.04 0h8.03m8.04 0h8.03m8.04 0h8.04m8.03 0h8.05m8.03 0h8.04m8.03 0h8.04m8.03 0h8.03m8.04 0h8.03m8.04 0h8.03m8.04 0h8.04m8.03 0h8.05m8.03 0h8.04m8.03 0h8.04m8.03 0h8.03m8.04 0h8.03m8.04 0h8.03m8.04 0h8.04m8.03 0h8.05m8.03 0h4.02v4m0 8v8m0 8v8m0 8v8m0 8v8m0 8v7.98m0 8v8m0 8v8m0 8v8m0 8v8m0 8v8m0 8v8m0 7.98v8m0 8v8m0 8v8m0 8v8m0 8v8m0 8v8m0 8v7.98m0 8v8m0 8v8m0 8v8m0 8v8m0 8v8m0 8v8m0 7.98v8m0 8v8m0 8v8m0 8v8m0 8v8m0 8v8m0 8v7.98m0 8v8m0 8v8m0 8v8m0 8v8m0 8v8m0 8v8m0 7.98v8m0 8v8m0 8v8m0 8v8m0 8v8m0 8v8m0 8v7.98m0 8v8m0 8v8m0 8v8m0 8v8m0 8v8m0 8v8m0 7.98v8m0 8v8m0 8v8m0 8v8m0 8v8m0 8v8m0 8v8m0 7.98v8m0 8v8m0 8v8m0 8v8m0 8v8m0 8v8m0 8v7.98m0 8v8m0 8v8m0 8v8m0 8v8m0 8v8m0 8v8m0 7.98v8m0 8v8m0 8v8m0 8v8m0 8v8m0 8v8m0 8v7.98m0 8v8m0 8v8m0 8v8m0 8v8m0 8v8m0 8v8m0 7.98v8m0 8v8m0 8v8m0 8v8m0 8v8m0 8v8m0 8v7.98m0 8v8m0 8v8m0 8v8m0 8v8m0 8v8m0 8v4h-4.02m-8.03 0h-8.04m-8.03 0h-8.03m-8.04 0h-8.03m-8.04 0h-8.03m-8.04 0h-8.04m-8.03 0h-8.05m-8.03 0h-8.04m-8.03 0h-8.04m-8.03 0h-8.03m-8.04 0h-8.03m-8.04 0h-8.03m-8.04 0h-8.04m-8.03 0h-8.05m-8.03 0h-8.04m-8.03 0h-8.04m-8.03 0h-8.03m-8.04 0h-8.03m-8.04 0h-8.03m-8.04 0h-8.04m-8.03 0h-8.05m-8.03 0h-8.04m-8.03 0h-8.04m-8.03 0h-8.03m-8.04 0h-8.03m-8.04 0h-8.03m-8.04 0h-8.04m-8.03 0h-8.05m-8.03 0h-8.04m-8.03 0h-8.04m-8.03 0h-8.03m-8.04 0h-8.03m-8.04 0h-8.03m-8.04 0h-8.04m-8.03 0h-8.05m-8.03 0h-8.04m-8.03 0h-8.04m-8.03 0h-8.03m-8.04 0h-8.03m-8.04 0h-8.03m-8.04 0h-8.04m-8.03 0h-8.05m-8.03 0h-8.04m-8.03 0h-8.04m-8.03 0h-8.03m-8.04 0h-8.03m-8.04 0h-8.03m-8.04 0h-8.04m-8.03 0h-8.05m-8.03 0h-8.04m-8.03 0h-8.04m-8.03 0h-8.03m-8.04 0h-8.03m-8.04 0h-8.03m-8.04 0h-8.04m-8.03 0h-8.05m-8.03 0H400v-4m0-8v-8m0-8v-8m0-8v-8m0-8v-8m0-8v-8m0-8v-8m0-8v-8m0-8v-8m0-8v-8m0-7.98v-8m0-8v-8m0-8v-8m0-8v-8m0-8v-8m0-8v-8m0-8v-7.98m0-8v-8m0-8v-8m0-8v-8m0-8v-8m0-8v-8m0-8v-8m0-7.98v-8m0-8v-8m0-8v-8m0-8v-8m0-8v-8m0-8v-8m0-8v-7.98m0-8v-8m0-8v-8m0-8v-8m0-8v-8m0-8v-8m0-8v-8m0-7.98v-8m0-8v-8m0-8v-8m0-8v-8m0-8v-8m0-8v-8m0-8v-7.98m0-8v-8m0-8v-8m0-8v-8m0-8v-8m0-8v-8m0-8v-8m0-7.98v-8m0-8v-8m0-8v-8m0-8v-8m0-8v-8m0-8v-8m0-8v-7.98m0-8v-8m0-8v-8m0-8v-8m0-8v-8m0-8v-8m0-8v-8m0-7.98v-8m0-8v-8m0-8v-8m0-8v-8m0-8v-8m0-8v-8m0-8v-7.98m0-8v-8m0-8v-8m0-8v-8m0-8v-8m0-8v-8m0-8v-8m0-7.98v-8m0-8v-8m0-8v-8m0-8v-8m0-8v-8m0-8v-8m0-8v-8m0-7.98v-8m0-8v-8m0-8v-8m0-8v-8m0-8v-8m0-8v-8m0-8V404m0-8v-8m0-8v-8m0-8v-8m0-8v-8m0-8v-8m0-8v-8m0-7.98v-8m0-8v-4h4.02" stroke="#147eba" stroke-width="2" fill="none"/><g><use xlink:href="#ab" transform="matrix(1,0,0,1,400,300) translate(307.07777777777784 30.399999999999984)"/><use xlink:href="#ac" transform="matrix(1,0,0,1,400,300) translate(338.74444444444447 30.399999999999984)"/><use xlink:href="#ad" transform="matrix(1,0,0,1,400,300) translate(418.8611111111111 30.399999999999984)"/></g><path d="M460 424.8h760v190.4H460z" stroke="#000" fill="#fff"/><g><use xlink:href="#ae" transform="matrix(1,0,0,1,465,429.8) translate(0 27.377777777777773)"/><use xlink:href="#af" transform="matrix(1,0,0,1,465,429.8) translate(38.02469135802468 27.377777777777773)"/><use xlink:href="#ag" transform="matrix(1,0,0,1,465,429.8) translate(190.02839506172836 27.377777777777773)"/><use xlink:href="#ah" transform="matrix(1,0,0,1,465,429.8) translate(0 73.82222222222222)"/><use xlink:href="#ai" transform="matrix(1,0,0,1,465,429.8) translate(38.02469135802468 73.82222222222222)"/><use xlink:href="#ag" transform="matrix(1,0,0,1,465,429.8) translate(184.13456790123453 73.82222222222222)"/><use xlink:href="#aj" transform="matrix(1,0,0,1,465,429.8) translate(0 120.26666666666668)"/><use xlink:href="#ai" transform="matrix(1,0,0,1,465,429.8) translate(38.02469135802468 120.26666666666668)"/><use xlink:href="#ak" transform="matrix(1,0,0,1,465,429.8) translate(184.13456790123453 120.26666666666668)"/><use xlink:href="#al" transform="matrix(1,0,0,1,465,429.8) translate(0 166.7111111111111)"/><use xlink:href="#af" transform="matrix(1,0,0,1,465,429.8) translate(38.02469135802468 166.7111111111111)"/><use xlink:href="#aa" transform="matrix(1,0,0,1,465,429.8) translate(190.02839506172836 166.7111111111111)"/></g><path d="M1480 280h900v1535.7h-900z" fill="#fff" fill-opacity="0"/><path d="M1492.05 280h8.04m8.03 0h8.03m8.04 0h8.03m8.04 0h8.03m8.04 0h8.04m8.03 0h8.05m8.03 0h8.04m8.03 0h8.04m8.03 0h8.03m8.04 0h8.03m8.04 0h8.03m8.04 0h8.04m8.03 0h8.05m8.03 0h8.04m8.03 0h8.04m8.03 0h8.03m8.04 0h8.03m8.04 0h8.03m8.04 0h8.04m8.03 0h8.05m8.03 0h8.04m8.03 0h8.04m8.03 0h8.03m8.04 0h8.03m8.04 0h8.03m8.04 0h8.04m8.03 0h8.05m8.03 0h8.04m8.03 0h8.04m8.03 0h8.03m8.04 0h8.03m8.04 0h8.03m8.04 0h8.04m8.03 0h8.05m8.03 0h8.04m8.03 0h8.04m8.03 0h8.03m8.04 0h8.03m8.04 0h8.03m8.04 0h8.04m8.03 0h8.05m8.03 0h8.04m8.03 0h8.04m8.03 0h8.03m8.04 0h8.03m8.04 0h8.03m8.04 0h8.04m8.03 0h8.05m8.03 0h8.04m8.03 0h8.04m8.03 0h8.03m8.04 0h8.03m8.04 0h8.03m8.04 0h8.04m8.03 0h8.05m8.03 0h4.02v4m0 8v8m0 8v8m0 8v8m0 8v8m0 8v7.98m0 8v8m0 8v8m0 8v8m0 8v8m0 8v8m0 8v8m0 7.98v8m0 8v8m0 8v8m0 8v8m0 8v8m0 8v8m0 8v7.98m0 8v8m0 8v8m0 8v8m0 8v8m0 8v8m0 8v8m0 7.98v8m0 8v8m0 8v8m0 8v8m0 8v8m0 8v8m0 8v7.98m0 8v8m0 8v8m0 8v8m0 8v8m0 8v8m0 8v8m0 7.98v8m0 8v8m0 8v8m0 8v8m0 8v8m0 8v8m0 8v7.98m0 8v8m0 8v8m0 8v8m0 8v8m0 8v8m0 8v8m0 7.98v8m0 8v8m0 8v8m0 8v8m0 8v8m0 8v8m0 8v8m0 7.98v8m0 8v8m0 8v8m0 8v8m0 8v8m0 8v8m0 8v7.98m0 8v8m0 8v8m0 8v8m0 8v8m0 8v8m0 8v8m0 7.98v8m0 8v8m0 8v8m0 8v8m0 8v8m0 8v8m0 8v7.98m0 8v8m0 8v8m0 8v8m0 8v8m0 8v8m0 8v8m0 7.98v8m0 8v8m0 8v8m0 8v8m0 8v8m0 8v8m0 8v7.98m0 8v8m0 8v8m0 8v8m0 8v8m0 8v8m0 8v4h-4.02m-8.03 0h-8.04m-8.03 0h-8.03m-8.04 0h-8.03m-8.04 0h-8.03m-8.04 0h-8.04m-8.03 0h-8.05m-8.03 0h-8.04m-8.03 0h-8.04m-8.03 0h-8.03m-8.04 0h-8.03m-8.04 0h-8.03m-8.04 0h-8.04m-8.03 0h-8.05m-8.03 0h-8.04m-8.03 0h-8.04m-8.03 0h-8.03m-8.04 0h-8.03m-8.04 0h-8.03m-8.04 0h-8.04m-8.03 0h-8.05m-8.03 0h-8.04m-8.03 0h-8.04m-8.03 0h-8.03m-8.04 0h-8.03m-8.04 0h-8.03m-8.04 0h-8.04m-8.03 0h-8.05m-8.03 0h-8.04m-8.03 0h-8.04m-8.03 0h-8.03m-8.04 0h-8.03m-8.04 0h-8.03m-8.04 0h-8.04m-8.03 0h-8.05m-8.03 0h-8.04m-8.03 0h-8.04m-8.03 0h-8.03m-8.04 0h-8.03m-8.04 0h-8.03m-8.04 0h-8.04m-8.03 0h-8.05m-8.03 0h-8.04m-8.03 0h-8.04m-8.03 0h-8.03m-8.04 0h-8.03m-8.04 0h-8.03m-8.04 0h-8.04m-8.03 0h-8.05m-8.03 0h-8.04m-8.03 0h-8.04m-8.03 0h-8.03m-8.04 0h-8.03m-8.04 0h-8.03m-8.04 0h-8.04m-8.03 0h-8.05m-8.03 0H1480v-4m0-8v-8m0-8v-8m0-8v-8m0-8v-8m0-8v-8m0-8v-8m0-8v-8m0-8v-8m0-8v-8m0-7.98v-8m0-8v-8m0-8v-8m0-8v-8m0-8v-8m0-8v-8m0-8v-7.98m0-8v-8m0-8v-8m0-8v-8m0-8v-8m0-8v-8m0-8v-8m0-7.98v-8m0-8v-8m0-8v-8m0-8v-8m0-8v-8m0-8v-8m0-8v-7.98m0-8v-8m0-8v-8m0-8v-8m0-8v-8m0-8v-8m0-8v-8m0-7.98v-8m0-8v-8m0-8v-8m0-8v-8m0-8v-8m0-8v-8m0-8v-7.98m0-8v-8m0-8v-8m0-8v-8m0-8v-8m0-8v-8m0-8v-8m0-7.98v-8m0-8v-8m0-8v-8m0-8v-8m0-8v-8m0-8v-8m0-8v-7.98m0-8v-8m0-8v-8m0-8v-8m0-8v-8m0-8v-8m0-8v-8m0-7.98v-8m0-8v-8m0-8v-8m0-8v-8m0-8v-8m0-8v-8m0-8v-7.98m0-8v-8m0-8v-8m0-8v-8m0-8v-8m0-8v-8m0-8v-8m0-7.98v-8m0-8v-8m0-8v-8m0-8v-8m0-8v-8m0-8v-8m0-8v-8m0-7.98v-8m0-8v-8m0-8v-8m0-8v-8m0-8v-8m0-8v-8m0-8V404m0-8v-8m0-8v-8m0-8v-8m0-8v-8m0-8v-8m0-8v-8m0-7.98v-8m0-8v-4h4.02" stroke="#147eba" stroke-width="2" fill="none"/><g><use xlink:href="#ab" transform="matrix(1,0,0,1,1480,300) translate(307.07777777777784 30.399999999999984)"/><use xlink:href="#ac" transform="matrix(1,0,0,1,1480,300) translate(338.74444444444447 30.399999999999984)"/><use xlink:href="#ad" transform="matrix(1,0,0,1,1480,300) translate(418.8611111111111 30.399999999999984)"/></g><path d="M1540 420h760v1302.94h-760z" stroke="#000" fill="#fff"/><g><use xlink:href="#ae" transform="matrix(1,0,0,1,1545,425.00000000000006) translate(0 441.5418402777778)"/><use xlink:href="#af" transform="matrix(1,0,0,1,1545,425.00000000000006) translate(38.02469135802468 441.5418402777778)"/><use xlink:href="#ag" transform="matrix(1,0,0,1,1545,425.00000000000006) translate(190.02839506172836 441.5418402777778)"/><use xlink:href="#am" transform="matrix(1,0,0,1,1545,425.00000000000006) translate(54 487.98628472222225)"/><use xlink:href="#an" transform="matrix(1,0,0,1,1545,425.00000000000006) translate(116.64567901234565 487.98628472222225)"/><use xlink:href="#ao" transform="matrix(1,0,0,1,1545,425.00000000000006) translate(245.83456790123452 487.98628472222225)"/><use xlink:href="#ap" transform="matrix(1,0,0,1,1545,425.00000000000006) translate(54 534.4307291666667)"/><use xlink:href="#aq" transform="matrix(1,0,0,1,1545,425.00000000000006) translate(202.0111111111111 534.4307291666667)"/><use xlink:href="#ar" transform="matrix(1,0,0,1,1545,425.00000000000006) translate(285.6654320987654 534.4307291666667)"/><use xlink:href="#as" transform="matrix(1,0,0,1,1545,425.00000000000006) translate(54 580.8751736111111)"/><use xlink:href="#at" transform="matrix(1,0,0,1,1545,425.00000000000006) translate(54 627.3196180555556)"/><use xlink:href="#au" transform="matrix(1,0,0,1,1545,425.00000000000006) translate(141.26666666666665 627.3196180555556)"/><use xlink:href="#av" transform="matrix(1,0,0,1,1545,425.00000000000006) translate(209.71111111111108 627.3196180555556)"/><use xlink:href="#at" transform="matrix(1,0,0,1,1545,425.00000000000006) translate(54 673.7640625)"/><use xlink:href="#aw" transform="matrix(1,0,0,1,1545,425.00000000000006) translate(141.26666666666665 673.7640625)"/><use xlink:href="#am" transform="matrix(1,0,0,1,1545,425.00000000000006) translate(54 720.2085069444445)"/><use xlink:href="#ax" transform="matrix(1,0,0,1,1545,425.00000000000006) translate(116.64567901234565 720.2085069444445)"/><use xlink:href="#ay" transform="matrix(1,0,0,1,1545,425.00000000000006) translate(234.4271604938271 720.2085069444445)"/><use xlink:href="#ah" transform="matrix(1,0,0,1,1545,425.00000000000006) translate(0 766.6529513888889)"/><use xlink:href="#ai" transform="matrix(1,0,0,1,1545,425.00000000000006) translate(38.02469135802468 766.6529513888889)"/><use xlink:href="#ag" transform="matrix(1,0,0,1,1545,425.00000000000006) translate(184.13456790123453 766.6529513888889)"/><use xlink:href="#aj" transform="matrix(1,0,0,1,1545,425.00000000000006) translate(0 813.0973958333334)"/><use xlink:href="#ai" transform="matrix(1,0,0,1,1545,425.00000000000006) translate(38.02469135802468 813.0973958333334)"/><use xlink:href="#ak" transform="matrix(1,0,0,1,1545,425.00000000000006) translate(184.13456790123453 813.0973958333334)"/><use xlink:href="#al" transform="matrix(1,0,0,1,1545,425.00000000000006) translate(0 859.5418402777779)"/><use xlink:href="#af" transform="matrix(1,0,0,1,1545,425.00000000000006) translate(38.02469135802468 859.5418402777779)"/><use xlink:href="#aa" transform="matrix(1,0,0,1,1545,425.00000000000006) translate(190.02839506172836 859.5418402777779)"/></g><defs><path fill="#6a9955" d="M194-70c0 46-34 64-81 66v29H91V-4C42-5 12-27 4-67l30-6c5 28 25 41 57 43v-87c-38-9-76-20-76-67 1-42 33-58 76-59v-23h22v23c45 0 67 20 76 56l-31 6c-5-23-18-35-45-37v78c41 10 81 20 81 70zm-81 41c51 7 71-66 19-77-6-2-12-4-19-6v83zM91-219c-47-6-63 57-18 69 6 2 12 3 18 5v-74" id="az"/><path fill="#6a9955" d="M30-248c118-7 216 8 213 122C240-48 200 0 122 0H30v-248zM63-27c89 8 146-16 146-99s-60-101-146-95v194" id="aA"/><path fill="#6a9955" d="M100-194c63 0 86 42 84 106H49c0 40 14 67 53 68 26 1 43-12 49-29l28 8c-11 28-37 45-77 45C44 4 14-33 15-96c1-61 26-98 85-98zm52 81c6-60-76-77-97-28-3 7-6 17-6 28h103" id="aB"/><path fill="#6a9955" d="M115-194c55 1 70 41 70 98S169 2 115 4C84 4 66-9 55-30l1 105H24l-1-265h31l2 30c10-21 28-34 59-34zm-8 174c40 0 45-34 45-75s-6-73-45-74c-42 0-51 32-51 76 0 43 10 73 51 73" id="aC"/><path fill="#6a9955" d="M24 0v-261h32V0H24" id="aD"/><path fill="#6a9955" d="M100-194c62-1 85 37 85 99 1 63-27 99-86 99S16-35 15-95c0-66 28-99 85-99zM99-20c44 1 53-31 53-75 0-43-8-75-51-75s-53 32-53 75 10 74 51 75" id="aE"/><path fill="#6a9955" d="M179-190L93 31C79 59 56 82 12 73V49c39 6 53-20 64-50L1-190h34L92-34l54-156h33" id="aF"/><path fill="#6a9955" d="M210-169c-67 3-38 105-44 169h-31v-121c0-29-5-50-35-48C34-165 62-65 56 0H25l-1-190h30c1 10-1 24 2 32 10-44 99-50 107 0 11-21 27-35 58-36 85-2 47 119 55 194h-31v-121c0-29-5-49-35-48" id="aG"/><path fill="#6a9955" d="M117-194c89-4 53 116 60 194h-32v-121c0-31-8-49-39-48C34-167 62-67 57 0H25l-1-190h30c1 10-1 24 2 32 11-22 29-35 61-36" id="aH"/><path fill="#6a9955" d="M59-47c-2 24 18 29 38 22v24C64 9 27 4 27-40v-127H5v-23h24l9-43h21v43h35v23H59v120" id="aI"/><path fill="#6a9955" d="M212-179c-10-28-35-45-73-45-59 0-87 40-87 99 0 60 29 101 89 101 43 0 62-24 78-52l27 14C228-24 195 4 139 4 59 4 22-46 18-125c-6-104 99-153 187-111 19 9 31 26 39 46" id="aJ"/><path fill="#6a9955" d="M101-234c-31-9-42 10-38 44h38v23H63V0H32v-167H5v-23h27c-7-52 17-82 69-68v24" id="aK"/><path fill="#6a9955" d="M24-231v-30h32v30H24zM24 0v-190h32V0H24" id="aL"/><path fill="#6a9955" d="M177-190C167-65 218 103 67 71c-23-6-38-20-44-43l32-5c15 47 100 32 89-28v-30C133-14 115 1 83 1 29 1 15-40 15-95c0-56 16-97 71-98 29-1 48 16 59 35 1-10 0-23 2-32h30zM94-22c36 0 50-32 50-73 0-42-14-75-50-75-39 0-46 34-46 75s6 73 46 73" id="aM"/><g id="a"><use transform="matrix(0.10740740740740738,0,0,0.10740740740740738,0,0)" xlink:href="#az"/><use transform="matrix(0.10740740740740738,0,0,0.10740740740740738,21.481481481481477,0)" xlink:href="#aA"/><use transform="matrix(0.10740740740740738,0,0,0.10740740740740738,49.29999999999999,0)" xlink:href="#aB"/><use transform="matrix(0.10740740740740738,0,0,0.10740740740740738,70.78148148148146,0)" xlink:href="#aC"/><use transform="matrix(0.10740740740740738,0,0,0.10740740740740738,92.26296296296294,0)" xlink:href="#aD"/><use transform="matrix(0.10740740740740738,0,0,0.10740740740740738,100.74814814814813,0)" xlink:href="#aE"/><use transform="matrix(0.10740740740740738,0,0,0.10740740740740738,122.22962962962963,0)" xlink:href="#aF"/><use transform="matrix(0.10740740740740738,0,0,0.10740740740740738,141.56296296296296,0)" xlink:href="#aG"/><use transform="matrix(0.10740740740740738,0,0,0.10740740740740738,173.67777777777775,0)" xlink:href="#aB"/><use transform="matrix(0.10740740740740738,0,0,0.10740740740740738,195.15925925925922,0)" xlink:href="#aH"/><use transform="matrix(0.10740740740740738,0,0,0.10740740740740738,216.64074074074068,0)" xlink:href="#aI"/><use transform="matrix(0.10740740740740738,0,0,0.10740740740740738,227.38148148148142,0)" xlink:href="#aJ"/><use transform="matrix(0.10740740740740738,0,0,0.10740740740740738,255.19999999999993,0)" xlink:href="#aE"/><use transform="matrix(0.10740740740740738,0,0,0.10740740740740738,276.6814814814814,0)" xlink:href="#aH"/><use transform="matrix(0.10740740740740738,0,0,0.10740740740740738,298.16296296296287,0)" xlink:href="#aK"/><use transform="matrix(0.10740740740740738,0,0,0.10740740740740738,308.9037037037036,0)" xlink:href="#aL"/><use transform="matrix(0.10740740740740738,0,0,0.10740740740740738,317.3888888888888,0)" xlink:href="#aM"/></g><path fill="#6a9955" d="M18-150v-26h174v26H18zm0 90v-26h174v26H18" id="aN"/><use transform="matrix(0.10740740740740738,0,0,0.10740740740740738,0,0)" xlink:href="#aN" id="b"/><path fill="#6a9955" d="M198-261c85 0 136 45 136 128 0 61-22 111-78 115-29 2-39-18-37-44-12 23-32 44-66 44-41 0-58-28-58-68 0-60 30-105 88-108 29-1 43 15 54 32l7-28h28c-9 45-23 84-27 134-1 11 6 17 14 16 39-4 51-48 51-92 0-69-42-107-112-107-93 0-145 59-145 153C53-15 94 26 168 27c43 0 78-13 106-28l9 19c-30 18-67 32-115 32C79 50 28-1 28-86c0-107 62-175 170-175zM158-41c46 0 70-43 70-90 0-26-17-40-43-40-44 0-59 41-61 85-1 26 9 45 34 45" id="aO"/><path fill="#6a9955" d="M39-94c74 12-11 154 75 146v23c-44 4-70-10-70-52C44-23 55-84 6-82v-22c81 4-7-162 84-157h24v23c-82-15-2 131-75 144" id="aP"/><g id="c"><use transform="matrix(0.10740740740740738,0,0,0.10740740740740738,0,0)" xlink:href="#aO"/><use transform="matrix(0.10740740740740738,0,0,0.10740740740740738,39.203703703703695,0)" xlink:href="#aP"/></g><path fill="#6a9955" d="M84 4C-5 8 30-112 23-190h32v120c0 31 7 50 39 49 72-2 45-101 50-169h31l1 190h-30c-1-10 1-25-2-33-11 22-28 36-60 37" id="aQ"/><path fill="#6a9955" d="M85-194c31 0 48 13 60 33l-1-100h32l1 261h-30c-2-10 0-23-3-31C134-8 116 4 85 4 32 4 16-35 15-94c0-66 23-100 70-100zm9 24c-40 0-46 34-46 75 0 40 6 74 45 74 42 0 51-32 51-76 0-42-9-74-50-73" id="aR"/><path fill="#6a9955" d="M30-248c87 1 191-15 191 75 0 78-77 80-158 76V0H30v-248zm33 125c57 0 124 11 124-50 0-59-68-47-124-48v98" id="aS"/><path fill="#6a9955" d="M114-163C36-179 61-72 57 0H25l-1-190h30c1 12-1 29 2 39 6-27 23-49 58-41v29" id="aT"/><path fill="#6a9955" d="M108 0H70L1-190h34L89-25l56-165h34" id="aU"/><g id="f"><use transform="matrix(0.10740740740740738,0,0,0.10740740740740738,0,0)" xlink:href="#aJ"/><use transform="matrix(0.10740740740740738,0,0,0.10740740740740738,27.818518518518513,0)" xlink:href="#aD"/><use transform="matrix(0.10740740740740738,0,0,0.10740740740740738,36.3037037037037,0)" xlink:href="#aE"/><use transform="matrix(0.10740740740740738,0,0,0.10740740740740738,57.78518518518517,0)" xlink:href="#aQ"/><use transform="matrix(0.10740740740740738,0,0,0.10740740740740738,79.26666666666665,0)" xlink:href="#aR"/><use transform="matrix(0.10740740740740738,0,0,0.10740740740740738,100.74814814814813,0)" xlink:href="#aS"/><use transform="matrix(0.10740740740740738,0,0,0.10740740740740738,126.52592592592589,0)" xlink:href="#aT"/><use transform="matrix(0.10740740740740738,0,0,0.10740740740740738,139.30740740740737,0)" xlink:href="#aE"/><use transform="matrix(0.10740740740740738,0,0,0.10740740740740738,160.78888888888883,0)" xlink:href="#aU"/><use transform="matrix(0.10740740740740738,0,0,0.10740740740740738,180.12222222222215,0)" xlink:href="#aL"/><use transform="matrix(0.10740740740740738,0,0,0.10740740740740738,188.60740740740732,0)" xlink:href="#aR"/><use transform="matrix(0.10740740740740738,0,0,0.10740740740740738,210.0888888888888,0)" xlink:href="#aB"/><use transform="matrix(0.10740740740740738,0,0,0.10740740740740738,231.57037037037026,0)" xlink:href="#aT"/></g><path fill="#6a9955" d="M109-170H84l-4-78h32zm-65 0H19l-4-78h33" id="aV"/><path fill="#6a9955" d="M141-36C126-15 110 5 73 4 37 3 15-17 15-53c-1-64 63-63 125-63 3-35-9-54-41-54-24 1-41 7-42 31l-33-3c5-37 33-52 76-52 45 0 72 20 72 64v82c-1 20 7 32 28 27v20c-31 9-61-2-59-35zM48-53c0 20 12 33 32 33 41-3 63-29 60-74-43 2-92-5-92 41" id="aW"/><path fill="#6a9955" d="M206 0h-36l-40-164L89 0H53L-1-190h32L70-26l43-164h34l41 164 42-164h31" id="aX"/><path fill="#6a9955" d="M135-143c-3-34-86-38-87 0 15 53 115 12 119 90S17 21 10-45l28-5c4 36 97 45 98 0-10-56-113-15-118-90-4-57 82-63 122-42 12 7 21 19 24 35" id="aY"/><path fill="#6a9955" d="M68-36c1 33-1 63-14 82H32c9-13 17-26 17-46H33v-36h35zM33-154v-36h35v36H33" id="aZ"/><g id="g"><use transform="matrix(0.10740740740740738,0,0,0.10740740740740738,0,0)" xlink:href="#aV"/><use transform="matrix(0.10740740740740738,0,0,0.10740740740740738,13.640740740740737,0)" xlink:href="#aW"/><use transform="matrix(0.10740740740740738,0,0,0.10740740740740738,35.12222222222221,0)" xlink:href="#aX"/><use transform="matrix(0.10740740740740738,0,0,0.10740740740740738,62.94074074074073,0)" xlink:href="#aY"/><use transform="matrix(0.10740740740740738,0,0,0.10740740740740738,82.27407407407405,0)" xlink:href="#aV"/><use transform="matrix(0.10740740740740738,0,0,0.10740740740740738,95.91481481481479,0)" xlink:href="#aZ"/></g><path fill="#6a9955" d="M233-177c-1 41-23 64-60 70L243 0h-38l-65-103H63V0H30v-248c88 3 205-21 203 71zM63-129c60-2 137 13 137-47 0-61-80-42-137-45v92" id="ba"/><g id="h"><use transform="matrix(0.10740740740740738,0,0,0.10740740740740738,0,0)" xlink:href="#ba"/><use transform="matrix(0.10740740740740738,0,0,0.10740740740740738,27.818518518518513,0)" xlink:href="#aB"/><use transform="matrix(0.10740740740740738,0,0,0.10740740740740738,49.29999999999999,0)" xlink:href="#aM"/><use transform="matrix(0.10740740740740738,0,0,0.10740740740740738,70.78148148148146,0)" xlink:href="#aL"/><use transform="matrix(0.10740740740740738,0,0,0.10740740740740738,79.26666666666665,0)" xlink:href="#aE"/><use transform="matrix(0.10740740740740738,0,0,0.10740740740740738,100.74814814814813,0)" xlink:href="#aH"/></g><path fill="#6a9955" d="M16-82v-28h88v28H16" id="bb"/><path fill="#6a9955" d="M27 0v-27h64v-190l-56 39v-29l58-41h29v221h61V0H27" id="bc"/><g id="i"><use transform="matrix(0.10740740740740738,0,0,0.10740740740740738,0,0)" xlink:href="#aV"/><use transform="matrix(0.10740740740740738,0,0,0.10740740740740738,13.640740740740737,0)" xlink:href="#aQ"/><use transform="matrix(0.10740740740740738,0,0,0.10740740740740738,35.12222222222221,0)" xlink:href="#aY"/><use transform="matrix(0.10740740740740738,0,0,0.10740740740740738,54.45555555555554,0)" xlink:href="#bb"/><use transform="matrix(0.10740740740740738,0,0,0.10740740740740738,67.23703703703703,0)" xlink:href="#aX"/><use transform="matrix(0.10740740740740738,0,0,0.10740740740740738,95.05555555555554,0)" xlink:href="#aB"/><use transform="matrix(0.10740740740740738,0,0,0.10740740740740738,116.53703703703704,0)" xlink:href="#aY"/><use transform="matrix(0.10740740740740738,0,0,0.10740740740740738,135.87037037037035,0)" xlink:href="#aI"/><use transform="matrix(0.10740740740740738,0,0,0.10740740740740738,146.6111111111111,0)" xlink:href="#bb"/><use transform="matrix(0.10740740740740738,0,0,0.10740740740740738,159.39259259259256,0)" xlink:href="#bc"/><use transform="matrix(0.10740740740740738,0,0,0.10740740740740738,180.87407407407403,0)" xlink:href="#aV"/><use transform="matrix(0.10740740740740738,0,0,0.10740740740740738,194.51481481481477,0)" xlink:href="#aZ"/></g><path fill="#6a9955" d="M205 0l-28-72H64L36 0H1l101-248h38L239 0h-34zm-38-99l-47-123c-12 45-31 82-46 123h93" id="bd"/><path fill="#6a9955" d="M190 0L58-211 59 0H30v-248h39L202-35l-2-213h31V0h-41" id="be"/><g id="j"><use transform="matrix(0.10740740740740738,0,0,0.10740740740740738,0,0)" xlink:href="#bd"/><use transform="matrix(0.10740740740740738,0,0,0.10740740740740738,25.77777777777777,0)" xlink:href="#aC"/><use transform="matrix(0.10740740740740738,0,0,0.10740740740740738,47.25925925925925,0)" xlink:href="#aC"/><use transform="matrix(0.10740740740740738,0,0,0.10740740740740738,68.74074074074073,0)" xlink:href="#be"/><use transform="matrix(0.10740740740740738,0,0,0.10740740740740738,96.55925925925925,0)" xlink:href="#aW"/><use transform="matrix(0.10740740740740738,0,0,0.10740740740740738,118.04074074074073,0)" xlink:href="#aG"/><use transform="matrix(0.10740740740740738,0,0,0.10740740740740738,150.15555555555554,0)" xlink:href="#aB"/></g><g id="k"><use transform="matrix(0.10740740740740738,0,0,0.10740740740740738,0,0)" xlink:href="#aV"/><use transform="matrix(0.10740740740740738,0,0,0.10740740740740738,13.640740740740737,0)" xlink:href="#aW"/><use transform="matrix(0.10740740740740738,0,0,0.10740740740740738,35.12222222222221,0)" xlink:href="#aC"/><use transform="matrix(0.10740740740740738,0,0,0.10740740740740738,56.603703703703694,0)" xlink:href="#aC"/><use transform="matrix(0.10740740740740738,0,0,0.10740740740740738,78.08518518518517,0)" xlink:href="#bb"/><use transform="matrix(0.10740740740740738,0,0,0.10740740740740738,90.86666666666665,0)" xlink:href="#bc"/><use transform="matrix(0.10740740740740738,0,0,0.10740740740740738,112.34814814814813,0)" xlink:href="#aV"/><use transform="matrix(0.10740740740740738,0,0,0.10740740740740738,125.98888888888887,0)" xlink:href="#aZ"/></g><path fill="#6a9955" d="M30 0v-248h187v28H63v79h144v27H63v87h162V0H30" id="bf"/><g id="l"><use transform="matrix(0.10740740740740738,0,0,0.10740740740740738,0,0)" xlink:href="#bf"/><use transform="matrix(0.10740740740740738,0,0,0.10740740740740738,25.77777777777777,0)" xlink:href="#aH"/><use transform="matrix(0.10740740740740738,0,0,0.10740740740740738,47.25925925925925,0)" xlink:href="#aU"/><use transform="matrix(0.10740740740740738,0,0,0.10740740740740738,66.59259259259258,0)" xlink:href="#aL"/><use transform="matrix(0.10740740740740738,0,0,0.10740740740740738,75.07777777777777,0)" xlink:href="#aT"/><use transform="matrix(0.10740740740740738,0,0,0.10740740740740738,87.85925925925925,0)" xlink:href="#aE"/><use transform="matrix(0.10740740740740738,0,0,0.10740740740740738,109.34074074074073,0)" xlink:href="#aH"/><use transform="matrix(0.10740740740740738,0,0,0.10740740740740738,130.8222222222222,0)" xlink:href="#aG"/><use transform="matrix(0.10740740740740738,0,0,0.10740740740740738,162.937037037037,0)" xlink:href="#aB"/><use transform="matrix(0.10740740740740738,0,0,0.10740740740740738,184.41851851851845,0)" xlink:href="#aH"/><use transform="matrix(0.10740740740740738,0,0,0.10740740740740738,205.89999999999992,0)" xlink:href="#aI"/></g><g id="m"><use transform="matrix(0.10740740740740738,0,0,0.10740740740740738,0,0)" xlink:href="#aV"/><use transform="matrix(0.10740740740740738,0,0,0.10740740740740738,13.640740740740737,0)" xlink:href="#aR"/><use transform="matrix(0.10740740740740738,0,0,0.10740740740740738,35.12222222222221,0)" xlink:href="#aB"/><use transform="matrix(0.10740740740740738,0,0,0.10740740740740738,56.603703703703694,0)" xlink:href="#aU"/><use transform="matrix(0.10740740740740738,0,0,0.10740740740740738,75.93703703703702,0)" xlink:href="#aV"/><use transform="matrix(0.10740740740740738,0,0,0.10740740740740738,89.57777777777775,0)" xlink:href="#aZ"/></g><path fill="#6a9955" d="M127-220V0H93v-220H8v-28h204v28h-85" id="bg"/><g id="n"><use transform="matrix(0.10740740740740738,0,0,0.10740740740740738,0,0)" xlink:href="#aA"/><use transform="matrix(0.10740740740740738,0,0,0.10740740740740738,27.818518518518513,0)" xlink:href="#aB"/><use transform="matrix(0.10740740740740738,0,0,0.10740740740740738,49.29999999999999,0)" xlink:href="#aC"/><use transform="matrix(0.10740740740740738,0,0,0.10740740740740738,70.78148148148146,0)" xlink:href="#aD"/><use transform="matrix(0.10740740740740738,0,0,0.10740740740740738,79.26666666666665,0)" xlink:href="#aE"/><use transform="matrix(0.10740740740740738,0,0,0.10740740740740738,100.74814814814813,0)" xlink:href="#aF"/><use transform="matrix(0.10740740740740738,0,0,0.10740740740740738,120.08148148148145,0)" xlink:href="#aG"/><use transform="matrix(0.10740740740740738,0,0,0.10740740740740738,152.19629629629628,0)" xlink:href="#aB"/><use transform="matrix(0.10740740740740738,0,0,0.10740740740740738,173.67777777777775,0)" xlink:href="#aH"/><use transform="matrix(0.10740740740740738,0,0,0.10740740740740738,195.15925925925922,0)" xlink:href="#aI"/><use transform="matrix(0.10740740740740738,0,0,0.10740740740740738,205.89999999999995,0)" xlink:href="#bg"/><use transform="matrix(0.10740740740740738,0,0,0.10740740740740738,227.274074074074,0)" xlink:href="#aF"/><use transform="matrix(0.10740740740740738,0,0,0.10740740740740738,246.6074074074073,0)" xlink:href="#aC"/><use transform="matrix(0.10740740740740738,0,0,0.10740740740740738,268.0888888888888,0)" xlink:href="#aB"/></g><g id="o"><use transform="matrix(0.10740740740740738,0,0,0.10740740740740738,0,0)" xlink:href="#aV"/><use transform="matrix(0.10740740740740738,0,0,0.10740740740740738,13.640740740740737,0)" xlink:href="#aU"/><use transform="matrix(0.10740740740740738,0,0,0.10740740740740738,32.97407407407407,0)" xlink:href="#aG"/><use transform="matrix(0.10740740740740738,0,0,0.10740740740740738,65.08888888888887,0)" xlink:href="#aV"/><use transform="matrix(0.10740740740740738,0,0,0.10740740740740738,78.72962962962961,0)" xlink:href="#aZ"/></g><path fill="#6a9955" d="M240 0l2-218c-23 76-54 145-80 218h-23L58-218 59 0H30v-248h44l77 211c21-75 51-140 76-211h43V0h-30" id="bh"/><path fill="#6a9955" d="M185-189c-5-48-123-54-124 2 14 75 158 14 163 119 3 78-121 87-175 55-17-10-28-26-33-46l33-7c5 56 141 63 141-1 0-78-155-14-162-118-5-82 145-84 179-34 5 7 8 16 11 25" id="bi"/><g id="p"><use transform="matrix(0.10740740740740738,0,0,0.10740740740740738,0,0)" xlink:href="#bh"/><use transform="matrix(0.10740740740740738,0,0,0.10740740740740738,32.11481481481481,0)" xlink:href="#aE"/><use transform="matrix(0.10740740740740738,0,0,0.10740740740740738,53.59629629629629,0)" xlink:href="#aR"/><use transform="matrix(0.10740740740740738,0,0,0.10740740740740738,75.07777777777777,0)" xlink:href="#aQ"/><use transform="matrix(0.10740740740740738,0,0,0.10740740740740738,96.55925925925925,0)" xlink:href="#aD"/><use transform="matrix(0.10740740740740738,0,0,0.10740740740740738,105.04444444444444,0)" xlink:href="#aB"/><use transform="matrix(0.10740740740740738,0,0,0.10740740740740738,126.52592592592592,0)" xlink:href="#bi"/><use transform="matrix(0.10740740740740738,0,0,0.10740740740740738,152.3037037037037,0)" xlink:href="#aB"/><use transform="matrix(0.10740740740740738,0,0,0.10740740740740738,173.78518518518516,0)" xlink:href="#aI"/></g><g id="q"><use transform="matrix(0.10740740740740738,0,0,0.10740740740740738,0,0)" xlink:href="#aV"/><use transform="matrix(0.10740740740740738,0,0,0.10740740740740738,13.640740740740737,0)" xlink:href="#aC"/><use transform="matrix(0.10740740740740738,0,0,0.10740740740740738,35.12222222222221,0)" xlink:href="#aT"/><use transform="matrix(0.10740740740740738,0,0,0.10740740740740738,47.90370370370369,0)" xlink:href="#aE"/><use transform="matrix(0.10740740740740738,0,0,0.10740740740740738,69.38518518518516,0)" xlink:href="#aU"/><use transform="matrix(0.10740740740740738,0,0,0.10740740740740738,88.7185185185185,0)" xlink:href="#aL"/><use transform="matrix(0.10740740740740738,0,0,0.10740740740740738,97.20370370370368,0)" xlink:href="#aY"/><use transform="matrix(0.10740740740740738,0,0,0.10740740740740738,116.53703703703701,0)" xlink:href="#aL"/><use transform="matrix(0.10740740740740738,0,0,0.10740740740740738,125.0222222222222,0)" xlink:href="#aE"/><use transform="matrix(0.10740740740740738,0,0,0.10740740740740738,146.50370370370368,0)" xlink:href="#aH"/><use transform="matrix(0.10740740740740738,0,0,0.10740740740740738,167.98518518518514,0)" xlink:href="#aV"/><use transform="matrix(0.10740740740740738,0,0,0.10740740740740738,181.62592592592588,0)" xlink:href="#aZ"/></g><path fill="#6a9955" d="M96-169c-40 0-48 33-48 73s9 75 48 75c24 0 41-14 43-38l32 2c-6 37-31 61-74 61-59 0-76-41-82-99-10-93 101-131 147-64 4 7 5 14 7 22l-32 3c-4-21-16-35-41-35" id="bj"/><g id="r"><use transform="matrix(0.10740740740740738,0,0,0.10740740740740738,0,0)" xlink:href="#ba"/><use transform="matrix(0.10740740740740738,0,0,0.10740740740740738,27.818518518518513,0)" xlink:href="#aQ"/><use transform="matrix(0.10740740740740738,0,0,0.10740740740740738,49.29999999999999,0)" xlink:href="#aH"/><use transform="matrix(0.10740740740740738,0,0,0.10740740740740738,70.78148148148146,0)" xlink:href="#aX"/><use transform="matrix(0.10740740740740738,0,0,0.10740740740740738,98.59999999999998,0)" xlink:href="#aW"/><use transform="matrix(0.10740740740740738,0,0,0.10740740740740738,120.08148148148145,0)" xlink:href="#aF"/><use transform="matrix(0.10740740740740738,0,0,0.10740740740740738,139.4148148148148,0)" xlink:href="#bd"/><use transform="matrix(0.10740740740740738,0,0,0.10740740740740738,165.19259259259258,0)" xlink:href="#bj"/><use transform="matrix(0.10740740740740738,0,0,0.10740740740740738,184.5259259259259,0)" xlink:href="#aI"/><use transform="matrix(0.10740740740740738,0,0,0.10740740740740738,195.26666666666662,0)" xlink:href="#aL"/><use transform="matrix(0.10740740740740738,0,0,0.10740740740740738,203.7518518518518,0)" xlink:href="#aE"/><use transform="matrix(0.10740740740740738,0,0,0.10740740740740738,225.2333333333333,0)" xlink:href="#aH"/></g><g id="s"><use transform="matrix(0.10740740740740738,0,0,0.10740740740740738,0,0)" xlink:href="#aV"/><use transform="matrix(0.10740740740740738,0,0,0.10740740740740738,13.640740740740737,0)" xlink:href="#aR"/><use transform="matrix(0.10740740740740738,0,0,0.10740740740740738,35.12222222222221,0)" xlink:href="#aB"/><use transform="matrix(0.10740740740740738,0,0,0.10740740740740738,56.603703703703694,0)" xlink:href="#aY"/><use transform="matrix(0.10740740740740738,0,0,0.10740740740740738,75.93703703703702,0)" xlink:href="#aI"/><use transform="matrix(0.10740740740740738,0,0,0.10740740740740738,86.67777777777775,0)" xlink:href="#aT"/><use transform="matrix(0.10740740740740738,0,0,0.10740740740740738,99.45925925925923,0)" xlink:href="#aE"/><use transform="matrix(0.10740740740740738,0,0,0.10740740740740738,120.94074074074071,0)" xlink:href="#aF"/><use transform="matrix(0.10740740740740738,0,0,0.10740740740740738,140.27407407407404,0)" xlink:href="#aV"/><use transform="matrix(0.10740740740740738,0,0,0.10740740740740738,153.91481481481478,0)" xlink:href="#aZ"/></g><path fill="#6a9955" d="M76-40C78 24 84 88 6 75V52C86 64 9-79 80-94c-40-6-34-59-34-106 1-29-11-41-40-38v-23c44-4 70 10 70 52 0 47-12 108 38 105v22c-26 1-39 14-38 42" id="bk"/><use transform="matrix(0.10740740740740738,0,0,0.10740740740740738,0,0)" xlink:href="#bk" id="u"/><path fill="#6a9955" d="M33 0v-38h34V0H33" id="bl"/><path fill="#6a9955" d="M72 4L0-261h28L100 4H72" id="bm"/><path fill="#6a9955" d="M137 0h-34L2-248h35l83 218 83-218h36" id="bn"/><path fill="#6a9955" d="M153-248C145-148 188 4 80 4 36 3 13-21 6-62l32-5c4 25 16 42 43 43 27 0 39-20 39-49v-147H72v-28h81" id="bo"/><path fill="#6a9955" d="M115-194c53 0 69 39 70 98 0 66-23 100-70 100C84 3 66-7 56-30L54 0H23l1-261h32v101c10-23 28-34 59-34zm-8 174c40 0 45-34 45-75 0-40-5-75-45-74-42 0-51 32-51 76 0 43 10 73 51 73" id="bp"/><g id="v"><use transform="matrix(0.10740740740740738,0,0,0.10740740740740738,0,0)" xlink:href="#bl"/><use transform="matrix(0.10740740740740738,0,0,0.10740740740740738,10.740740740740739,0)" xlink:href="#bm"/><use transform="matrix(0.10740740740740738,0,0,0.10740740740740738,21.481481481481477,0)" xlink:href="#ba"/><use transform="matrix(0.10740740740740738,0,0,0.10740740740740738,49.29999999999999,0)" xlink:href="#aQ"/><use transform="matrix(0.10740740740740738,0,0,0.10740740740740738,70.78148148148146,0)" xlink:href="#aH"/><use transform="matrix(0.10740740740740738,0,0,0.10740740740740738,92.26296296296294,0)" xlink:href="#bn"/><use transform="matrix(0.10740740740740738,0,0,0.10740740740740738,116.64444444444442,0)" xlink:href="#aT"/><use transform="matrix(0.10740740740740738,0,0,0.10740740740740738,129.4259259259259,0)" xlink:href="#aW"/><use transform="matrix(0.10740740740740738,0,0,0.10740740740740738,150.90740740740736,0)" xlink:href="#bo"/><use transform="matrix(0.10740740740740738,0,0,0.10740740740740738,170.2407407407407,0)" xlink:href="#aE"/><use transform="matrix(0.10740740740740738,0,0,0.10740740740740738,191.72222222222217,0)" xlink:href="#bp"/><use transform="matrix(0.10740740740740738,0,0,0.10740740740740738,213.20370370370364,0)" xlink:href="#bl"/><use transform="matrix(0.10740740740740738,0,0,0.10740740740740738,223.9444444444444,0)" xlink:href="#aC"/><use transform="matrix(0.10740740740740738,0,0,0.10740740740740738,245.4259259259258,0)" xlink:href="#aY"/><use transform="matrix(0.10740740740740738,0,0,0.10740740740740738,264.7592592592592,0)" xlink:href="#bc"/></g><g id="w"><use transform="matrix(0.10740740740740738,0,0,0.10740740740740738,0,0)" xlink:href="#aO"/><use transform="matrix(0.10740740740740738,0,0,0.10740740740740738,39.203703703703695,0)" xlink:href="#aA"/><use transform="matrix(0.10740740740740738,0,0,0.10740740740740738,67.02222222222221,0)" xlink:href="#aB"/><use transform="matrix(0.10740740740740738,0,0,0.10740740740740738,88.50370370370369,0)" xlink:href="#aC"/><use transform="matrix(0.10740740740740738,0,0,0.10740740740740738,109.98518518518519,0)" xlink:href="#aD"/><use transform="matrix(0.10740740740740738,0,0,0.10740740740740738,118.47037037037036,0)" xlink:href="#aE"/><use transform="matrix(0.10740740740740738,0,0,0.10740740740740738,139.95185185185184,0)" xlink:href="#aF"/><use transform="matrix(0.10740740740740738,0,0,0.10740740740740738,159.28518518518518,0)" xlink:href="#aG"/><use transform="matrix(0.10740740740740738,0,0,0.10740740740740738,191.39999999999998,0)" xlink:href="#aB"/><use transform="matrix(0.10740740740740738,0,0,0.10740740740740738,212.88148148148144,0)" xlink:href="#aH"/><use transform="matrix(0.10740740740740738,0,0,0.10740740740740738,234.3629629629629,0)" xlink:href="#aI"/><use transform="matrix(0.10740740740740738,0,0,0.10740740740740738,245.10370370370364,0)" xlink:href="#aJ"/><use transform="matrix(0.10740740740740738,0,0,0.10740740740740738,272.92222222222216,0)" xlink:href="#aE"/><use transform="matrix(0.10740740740740738,0,0,0.10740740740740738,294.4037037037036,0)" xlink:href="#aH"/><use transform="matrix(0.10740740740740738,0,0,0.10740740740740738,315.8851851851851,0)" xlink:href="#aK"/><use transform="matrix(0.10740740740740738,0,0,0.10740740740740738,326.62592592592586,0)" xlink:href="#aL"/><use transform="matrix(0.10740740740740738,0,0,0.10740740740740738,335.11111111111103,0)" xlink:href="#aM"/></g><path fill="#1e1e1e" d="M194-70c0 46-34 64-81 66v29H91V-4C42-5 12-27 4-67l30-6c5 28 25 41 57 43v-87c-38-9-76-20-76-67 1-42 33-58 76-59v-23h22v23c45 0 67 20 76 56l-31 6c-5-23-18-35-45-37v78c41 10 81 20 81 70zm-81 41c51 7 71-66 19-77-6-2-12-4-19-6v83zM91-219c-47-6-63 57-18 69 6 2 12 3 18 5v-74" id="bq"/><path fill="#1e1e1e" d="M30-248c118-7 216 8 213 122C240-48 200 0 122 0H30v-248zM63-27c89 8 146-16 146-99s-60-101-146-95v194" id="br"/><path fill="#1e1e1e" d="M100-194c63 0 86 42 84 106H49c0 40 14 67 53 68 26 1 43-12 49-29l28 8c-11 28-37 45-77 45C44 4 14-33 15-96c1-61 26-98 85-98zm52 81c6-60-76-77-97-28-3 7-6 17-6 28h103" id="bs"/><path fill="#1e1e1e" d="M115-194c55 1 70 41 70 98S169 2 115 4C84 4 66-9 55-30l1 105H24l-1-265h31l2 30c10-21 28-34 59-34zm-8 174c40 0 45-34 45-75s-6-73-45-74c-42 0-51 32-51 76 0 43 10 73 51 73" id="bt"/><path fill="#1e1e1e" d="M24 0v-261h32V0H24" id="bu"/><path fill="#1e1e1e" d="M100-194c62-1 85 37 85 99 1 63-27 99-86 99S16-35 15-95c0-66 28-99 85-99zM99-20c44 1 53-31 53-75 0-43-8-75-51-75s-53 32-53 75 10 74 51 75" id="bv"/><path fill="#1e1e1e" d="M179-190L93 31C79 59 56 82 12 73V49c39 6 53-20 64-50L1-190h34L92-34l54-156h33" id="bw"/><path fill="#1e1e1e" d="M210-169c-67 3-38 105-44 169h-31v-121c0-29-5-50-35-48C34-165 62-65 56 0H25l-1-190h30c1 10-1 24 2 32 10-44 99-50 107 0 11-21 27-35 58-36 85-2 47 119 55 194h-31v-121c0-29-5-49-35-48" id="bx"/><path fill="#1e1e1e" d="M117-194c89-4 53 116 60 194h-32v-121c0-31-8-49-39-48C34-167 62-67 57 0H25l-1-190h30c1 10-1 24 2 32 11-22 29-35 61-36" id="by"/><path fill="#1e1e1e" d="M59-47c-2 24 18 29 38 22v24C64 9 27 4 27-40v-127H5v-23h24l9-43h21v43h35v23H59v120" id="bz"/><path fill="#1e1e1e" d="M212-179c-10-28-35-45-73-45-59 0-87 40-87 99 0 60 29 101 89 101 43 0 62-24 78-52l27 14C228-24 195 4 139 4 59 4 22-46 18-125c-6-104 99-153 187-111 19 9 31 26 39 46" id="bA"/><path fill="#1e1e1e" d="M101-234c-31-9-42 10-38 44h38v23H63V0H32v-167H5v-23h27c-7-52 17-82 69-68v24" id="bB"/><path fill="#1e1e1e" d="M24-231v-30h32v30H24zM24 0v-190h32V0H24" id="bC"/><path fill="#1e1e1e" d="M177-190C167-65 218 103 67 71c-23-6-38-20-44-43l32-5c15 47 100 32 89-28v-30C133-14 115 1 83 1 29 1 15-40 15-95c0-56 16-97 71-98 29-1 48 16 59 35 1-10 0-23 2-32h30zM94-22c36 0 50-32 50-73 0-42-14-75-50-75-39 0-46 34-46 75s6 73 46 73" id="bD"/><g id="x"><use transform="matrix(0.0950617283950617,0,0,0.0950617283950617,0,0)" xlink:href="#bq"/><use transform="matrix(0.0950617283950617,0,0,0.0950617283950617,19.01234567901234,0)" xlink:href="#br"/><use transform="matrix(0.0950617283950617,0,0,0.0950617283950617,43.633333333333326,0)" xlink:href="#bs"/><use transform="matrix(0.0950617283950617,0,0,0.0950617283950617,62.64567901234566,0)" xlink:href="#bt"/><use transform="matrix(0.0950617283950617,0,0,0.0950617283950617,81.65802469135801,0)" xlink:href="#bu"/><use transform="matrix(0.0950617283950617,0,0,0.0950617283950617,89.16790123456788,0)" xlink:href="#bv"/><use transform="matrix(0.0950617283950617,0,0,0.0950617283950617,108.18024691358022,0)" xlink:href="#bw"/><use transform="matrix(0.0950617283950617,0,0,0.0950617283950617,125.29135802469132,0)" xlink:href="#bx"/><use transform="matrix(0.0950617283950617,0,0,0.0950617283950617,153.7148148148148,0)" xlink:href="#bs"/><use transform="matrix(0.0950617283950617,0,0,0.0950617283950617,172.7271604938271,0)" xlink:href="#by"/><use transform="matrix(0.0950617283950617,0,0,0.0950617283950617,191.73950617283947,0)" xlink:href="#bz"/><use transform="matrix(0.0950617283950617,0,0,0.0950617283950617,201.24567901234562,0)" xlink:href="#bA"/><use transform="matrix(0.0950617283950617,0,0,0.0950617283950617,225.86666666666662,0)" xlink:href="#bv"/><use transform="matrix(0.0950617283950617,0,0,0.0950617283950617,244.879012345679,0)" xlink:href="#by"/><use transform="matrix(0.0950617283950617,0,0,0.0950617283950617,263.8913580246913,0)" xlink:href="#bB"/><use transform="matrix(0.0950617283950617,0,0,0.0950617283950617,273.3975308641975,0)" xlink:href="#bC"/><use transform="matrix(0.0950617283950617,0,0,0.0950617283950617,280.9074074074074,0)" xlink:href="#bD"/></g><path fill="#1e1e1e" d="M140-251c81 0 123 46 123 126C263-46 219 4 140 4 59 4 17-45 17-125s42-126 123-126zm0 227c63 0 89-41 89-101s-29-99-89-99c-61 0-89 39-89 99S79-25 140-24" id="bE"/><path fill="#1e1e1e" d="M135-143c-3-34-86-38-87 0 15 53 115 12 119 90S17 21 10-45l28-5c4 36 97 45 98 0-10-56-113-15-118-90-4-57 82-63 122-42 12 7 21 19 24 35" id="bF"/><path fill="#1e1e1e" d="M33-154v-36h34v36H33zM33 0v-36h34V0H33" id="bG"/><g id="y"><use transform="matrix(0.0950617283950617,0,0,0.0950617283950617,0,0)" xlink:href="#bE"/><use transform="matrix(0.0950617283950617,0,0,0.0950617283950617,26.617283950617278,0)" xlink:href="#bt"/><use transform="matrix(0.0950617283950617,0,0,0.0950617283950617,45.62962962962962,0)" xlink:href="#bz"/><use transform="matrix(0.0950617283950617,0,0,0.0950617283950617,55.13580246913579,0)" xlink:href="#bC"/><use transform="matrix(0.0950617283950617,0,0,0.0950617283950617,62.64567901234566,0)" xlink:href="#bv"/><use transform="matrix(0.0950617283950617,0,0,0.0950617283950617,81.65802469135801,0)" xlink:href="#by"/><use transform="matrix(0.0950617283950617,0,0,0.0950617283950617,100.67037037037035,0)" xlink:href="#bF"/><use transform="matrix(0.0950617283950617,0,0,0.0950617283950617,117.78148148148145,0)" xlink:href="#bG"/></g><path fill="#1e1e1e" d="M84 4C-5 8 30-112 23-190h32v120c0 31 7 50 39 49 72-2 45-101 50-169h31l1 190h-30c-1-10 1-25-2-33-11 22-28 36-60 37" id="bH"/><path fill="#1e1e1e" d="M85-194c31 0 48 13 60 33l-1-100h32l1 261h-30c-2-10 0-23-3-31C134-8 116 4 85 4 32 4 16-35 15-94c0-66 23-100 70-100zm9 24c-40 0-46 34-46 75 0 40 6 74 45 74 42 0 51-32 51-76 0-42-9-74-50-73" id="bI"/><path fill="#1e1e1e" d="M30-248c87 1 191-15 191 75 0 78-77 80-158 76V0H30v-248zm33 125c57 0 124 11 124-50 0-59-68-47-124-48v98" id="bJ"/><path fill="#1e1e1e" d="M114-163C36-179 61-72 57 0H25l-1-190h30c1 12-1 29 2 39 6-27 23-49 58-41v29" id="bK"/><path fill="#1e1e1e" d="M108 0H70L1-190h34L89-25l56-165h34" id="bL"/><g id="A"><use transform="matrix(0.0950617283950617,0,0,0.0950617283950617,0,0)" xlink:href="#bA"/><use transform="matrix(0.0950617283950617,0,0,0.0950617283950617,24.62098765432098,0)" xlink:href="#bu"/><use transform="matrix(0.0950617283950617,0,0,0.0950617283950617,32.130864197530855,0)" xlink:href="#bv"/><use transform="matrix(0.0950617283950617,0,0,0.0950617283950617,51.143209876543196,0)" xlink:href="#bH"/><use transform="matrix(0.0950617283950617,0,0,0.0950617283950617,70.15555555555554,0)" xlink:href="#bI"/><use transform="matrix(0.0950617283950617,0,0,0.0950617283950617,89.16790123456788,0)" xlink:href="#bJ"/><use transform="matrix(0.0950617283950617,0,0,0.0950617283950617,111.98271604938269,0)" xlink:href="#bK"/><use transform="matrix(0.0950617283950617,0,0,0.0950617283950617,123.29506172839503,0)" xlink:href="#bv"/><use transform="matrix(0.0950617283950617,0,0,0.0950617283950617,142.30740740740737,0)" xlink:href="#bL"/><use transform="matrix(0.0950617283950617,0,0,0.0950617283950617,159.41851851851848,0)" xlink:href="#bC"/><use transform="matrix(0.0950617283950617,0,0,0.0950617283950617,166.92839506172837,0)" xlink:href="#bI"/><use transform="matrix(0.0950617283950617,0,0,0.0950617283950617,185.9407407407407,0)" xlink:href="#bs"/><use transform="matrix(0.0950617283950617,0,0,0.0950617283950617,204.95308641975302,0)" xlink:href="#bK"/></g><path fill="#1e1e1e" d="M18-150v-26h174v26H18zm0 90v-26h174v26H18" id="bM"/><use transform="matrix(0.0950617283950617,0,0,0.0950617283950617,0,0)" xlink:href="#bM" id="B"/><path fill="#1e1e1e" d="M141-36C126-15 110 5 73 4 37 3 15-17 15-53c-1-64 63-63 125-63 3-35-9-54-41-54-24 1-41 7-42 31l-33-3c5-37 33-52 76-52 45 0 72 20 72 64v82c-1 20 7 32 28 27v20c-31 9-61-2-59-35zM48-53c0 20 12 33 32 33 41-3 63-29 60-74-43 2-92-5-92 41" id="bN"/><path fill="#1e1e1e" d="M206 0h-36l-40-164L89 0H53L-1-190h32L70-26l43-164h34l41 164 42-164h31" id="bO"/><path fill="#1e1e1e" d="M68-38c1 34 0 65-14 84H32c9-13 17-26 17-46H33v-38h35" id="bP"/><g id="C"><use transform="matrix(0.0950617283950617,0,0,0.0950617283950617,0,0)" xlink:href="#bN"/><use transform="matrix(0.0950617283950617,0,0,0.0950617283950617,19.01234567901234,0)" xlink:href="#bO"/><use transform="matrix(0.0950617283950617,0,0,0.0950617283950617,43.633333333333326,0)" xlink:href="#bF"/><use transform="matrix(0.0950617283950617,0,0,0.0950617283950617,60.744444444444426,0)" xlink:href="#bP"/></g><path fill="#1e1e1e" d="M96-169c-40 0-48 33-48 73s9 75 48 75c24 0 41-14 43-38l32 2c-6 37-31 61-74 61-59 0-76-41-82-99-10-93 101-131 147-64 4 7 5 14 7 22l-32 3c-4-21-16-35-41-35" id="bQ"/><g id="D"><use transform="matrix(0.0950617283950617,0,0,0.0950617283950617,0,0)" xlink:href="#bD"/><use transform="matrix(0.0950617283950617,0,0,0.0950617283950617,19.01234567901234,0)" xlink:href="#bQ"/><use transform="matrix(0.0950617283950617,0,0,0.0950617283950617,36.12345679012345,0)" xlink:href="#bt"/><use transform="matrix(0.0950617283950617,0,0,0.0950617283950617,55.13580246913579,0)" xlink:href="#bP"/></g><path fill="#1e1e1e" d="M9 0v-24l116-142H16v-24h144v24L44-24h123V0H9" id="bR"/><g id="E"><use transform="matrix(0.0950617283950617,0,0,0.0950617283950617,0,0)" xlink:href="#bN"/><use transform="matrix(0.0950617283950617,0,0,0.0950617283950617,19.01234567901234,0)" xlink:href="#bR"/><use transform="matrix(0.0950617283950617,0,0,0.0950617283950617,36.12345679012345,0)" xlink:href="#bH"/><use transform="matrix(0.0950617283950617,0,0,0.0950617283950617,55.13580246913579,0)" xlink:href="#bK"/><use transform="matrix(0.0950617283950617,0,0,0.0950617283950617,66.44814814814814,0)" xlink:href="#bs"/><use transform="matrix(0.0950617283950617,0,0,0.0950617283950617,85.46049382716048,0)" xlink:href="#bP"/></g><g id="F"><use transform="matrix(0.0950617283950617,0,0,0.0950617283950617,0,0)" xlink:href="#bL"/><use transform="matrix(0.0950617283950617,0,0,0.0950617283950617,17.111111111111107,0)" xlink:href="#bx"/><use transform="matrix(0.0950617283950617,0,0,0.0950617283950617,45.53456790123455,0)" xlink:href="#bO"/><use transform="matrix(0.0950617283950617,0,0,0.0950617283950617,70.15555555555554,0)" xlink:href="#bN"/><use transform="matrix(0.0950617283950617,0,0,0.0950617283950617,89.16790123456788,0)" xlink:href="#bK"/><use transform="matrix(0.0950617283950617,0,0,0.0950617283950617,100.48024691358022,0)" xlink:href="#bs"/></g><path fill="#1e1e1e" d="M233-177c-1 41-23 64-60 70L243 0h-38l-65-103H63V0H30v-248c88 3 205-21 203 71zM63-129c60-2 137 13 137-47 0-61-80-42-137-45v92" id="bS"/><g id="G"><use transform="matrix(0.0950617283950617,0,0,0.0950617283950617,0,0)" xlink:href="#bS"/><use transform="matrix(0.0950617283950617,0,0,0.0950617283950617,24.62098765432098,0)" xlink:href="#bs"/><use transform="matrix(0.0950617283950617,0,0,0.0950617283950617,43.633333333333326,0)" xlink:href="#bD"/><use transform="matrix(0.0950617283950617,0,0,0.0950617283950617,62.64567901234566,0)" xlink:href="#bC"/><use transform="matrix(0.0950617283950617,0,0,0.0950617283950617,70.15555555555554,0)" xlink:href="#bv"/><use transform="matrix(0.0950617283950617,0,0,0.0950617283950617,89.16790123456788,0)" xlink:href="#by"/></g><path fill="#1e1e1e" d="M16-82v-28h88v28H16" id="bT"/><path fill="#1e1e1e" d="M27 0v-27h64v-190l-56 39v-29l58-41h29v221h61V0H27" id="bU"/><g id="H"><use transform="matrix(0.0950617283950617,0,0,0.0950617283950617,0,0)" xlink:href="#bH"/><use transform="matrix(0.0950617283950617,0,0,0.0950617283950617,19.01234567901234,0)" xlink:href="#bF"/><use transform="matrix(0.0950617283950617,0,0,0.0950617283950617,36.12345679012345,0)" xlink:href="#bT"/><use transform="matrix(0.0950617283950617,0,0,0.0950617283950617,47.435802469135794,0)" xlink:href="#bO"/><use transform="matrix(0.0950617283950617,0,0,0.0950617283950617,72.05679012345678,0)" xlink:href="#bs"/><use transform="matrix(0.0950617283950617,0,0,0.0950617283950617,91.06913580246912,0)" xlink:href="#bF"/><use transform="matrix(0.0950617283950617,0,0,0.0950617283950617,108.18024691358022,0)" xlink:href="#bz"/><use transform="matrix(0.0950617283950617,0,0,0.0950617283950617,117.68641975308638,0)" xlink:href="#bT"/><use transform="matrix(0.0950617283950617,0,0,0.0950617283950617,128.99876543209874,0)" xlink:href="#bU"/><use transform="matrix(0.0950617283950617,0,0,0.0950617283950617,148.01111111111106,0)" xlink:href="#bP"/></g><path fill="#1e1e1e" d="M101-251c82-7 93 87 43 132L82-64C71-53 59-42 53-27h129V0H18c2-99 128-94 128-182 0-28-16-43-45-43s-46 15-49 41l-32-3c6-41 34-60 81-64" id="bV"/><g id="I"><use transform="matrix(0.0950617283950617,0,0,0.0950617283950617,0,0)" xlink:href="#bH"/><use transform="matrix(0.0950617283950617,0,0,0.0950617283950617,19.01234567901234,0)" xlink:href="#bF"/><use transform="matrix(0.0950617283950617,0,0,0.0950617283950617,36.12345679012345,0)" xlink:href="#bT"/><use transform="matrix(0.0950617283950617,0,0,0.0950617283950617,47.435802469135794,0)" xlink:href="#bs"/><use transform="matrix(0.0950617283950617,0,0,0.0950617283950617,66.44814814814814,0)" xlink:href="#bN"/><use transform="matrix(0.0950617283950617,0,0,0.0950617283950617,85.46049382716048,0)" xlink:href="#bF"/><use transform="matrix(0.0950617283950617,0,0,0.0950617283950617,102.57160493827158,0)" xlink:href="#bz"/><use transform="matrix(0.0950617283950617,0,0,0.0950617283950617,112.07777777777775,0)" xlink:href="#bT"/><use transform="matrix(0.0950617283950617,0,0,0.0950617283950617,123.39012345679009,0)" xlink:href="#bV"/><use transform="matrix(0.0950617283950617,0,0,0.0950617283950617,142.40246913580245,0)" xlink:href="#bP"/></g><path fill="#1e1e1e" d="M33 0v-38h34V0H33" id="bW"/><g id="J"><use transform="matrix(0.0950617283950617,0,0,0.0950617283950617,0,0)" xlink:href="#bs"/><use transform="matrix(0.0950617283950617,0,0,0.0950617283950617,19.01234567901234,0)" xlink:href="#bz"/><use transform="matrix(0.0950617283950617,0,0,0.0950617283950617,28.518518518518512,0)" xlink:href="#bQ"/><use transform="matrix(0.0950617283950617,0,0,0.0950617283950617,45.62962962962962,0)" xlink:href="#bW"/></g><path fill="#1e1e1e" d="M205 0l-28-72H64L36 0H1l101-248h38L239 0h-34zm-38-99l-47-123c-12 45-31 82-46 123h93" id="bX"/><path fill="#1e1e1e" d="M190 0L58-211 59 0H30v-248h39L202-35l-2-213h31V0h-41" id="bY"/><g id="K"><use transform="matrix(0.0950617283950617,0,0,0.0950617283950617,0,0)" xlink:href="#bX"/><use transform="matrix(0.0950617283950617,0,0,0.0950617283950617,22.81481481481481,0)" xlink:href="#bt"/><use transform="matrix(0.0950617283950617,0,0,0.0950617283950617,41.82716049382715,0)" xlink:href="#bt"/><use transform="matrix(0.0950617283950617,0,0,0.0950617283950617,60.83950617283949,0)" xlink:href="#bY"/><use transform="matrix(0.0950617283950617,0,0,0.0950617283950617,85.46049382716048,0)" xlink:href="#bN"/><use transform="matrix(0.0950617283950617,0,0,0.0950617283950617,104.47283950617282,0)" xlink:href="#bx"/><use transform="matrix(0.0950617283950617,0,0,0.0950617283950617,132.89629629629627,0)" xlink:href="#bs"/></g><use transform="matrix(0.0950617283950617,0,0,0.0950617283950617,0,0)" xlink:href="#bM" id="L"/><path fill="#1e1e1e" d="M143 0L79-87 56-68V0H24v-261h32v163l83-92h37l-77 82L181 0h-38" id="bZ"/><g id="M"><use transform="matrix(0.0950617283950617,0,0,0.0950617283950617,0,0)" xlink:href="#bZ"/><use transform="matrix(0.0950617283950617,0,0,0.0950617283950617,17.111111111111107,0)" xlink:href="#bC"/><use transform="matrix(0.0950617283950617,0,0,0.0950617283950617,24.62098765432098,0)" xlink:href="#bu"/><use transform="matrix(0.0950617283950617,0,0,0.0950617283950617,32.130864197530855,0)" xlink:href="#bu"/><use transform="matrix(0.0950617283950617,0,0,0.0950617283950617,39.64074074074073,0)" xlink:href="#bs"/><use transform="matrix(0.0950617283950617,0,0,0.0950617283950617,58.65308641975307,0)" xlink:href="#bK"/><use transform="matrix(0.0950617283950617,0,0,0.0950617283950617,69.96543209876542,0)" xlink:href="#bT"/><use transform="matrix(0.0950617283950617,0,0,0.0950617283950617,81.27777777777776,0)" xlink:href="#bI"/><use transform="matrix(0.0950617283950617,0,0,0.0950617283950617,100.2901234567901,0)" xlink:href="#bs"/><use transform="matrix(0.0950617283950617,0,0,0.0950617283950617,119.30246913580244,0)" xlink:href="#bx"/><use transform="matrix(0.0950617283950617,0,0,0.0950617283950617,147.72592592592588,0)" xlink:href="#bv"/><use transform="matrix(0.0950617283950617,0,0,0.0950617283950617,166.73827160493823,0)" xlink:href="#bP"/></g><g id="N"><use transform="matrix(0.0950617283950617,0,0,0.0950617283950617,0,0)" xlink:href="#bx"/><use transform="matrix(0.0950617283950617,0,0,0.0950617283950617,28.42345679012345,0)" xlink:href="#bw"/><use transform="matrix(0.0950617283950617,0,0,0.0950617283950617,45.53456790123455,0)" xlink:href="#bT"/><use transform="matrix(0.0950617283950617,0,0,0.0950617283950617,56.84691358024689,0)" xlink:href="#bN"/><use transform="matrix(0.0950617283950617,0,0,0.0950617283950617,75.85925925925923,0)" xlink:href="#bt"/><use transform="matrix(0.0950617283950617,0,0,0.0950617283950617,94.87160493827157,0)" xlink:href="#bt"/><use transform="matrix(0.0950617283950617,0,0,0.0950617283950617,113.88395061728392,0)" xlink:href="#bT"/><use transform="matrix(0.0950617283950617,0,0,0.0950617283950617,125.19629629629627,0)" xlink:href="#bU"/><use transform="matrix(0.0950617283950617,0,0,0.0950617283950617,144.20864197530858,0)" xlink:href="#bP"/></g><path fill="#1e1e1e" d="M30 0v-248h187v28H63v79h144v27H63v87h162V0H30" id="ca"/><g id="O"><use transform="matrix(0.0950617283950617,0,0,0.0950617283950617,0,0)" xlink:href="#ca"/><use transform="matrix(0.0950617283950617,0,0,0.0950617283950617,22.81481481481481,0)" xlink:href="#by"/><use transform="matrix(0.0950617283950617,0,0,0.0950617283950617,41.82716049382715,0)" xlink:href="#bL"/><use transform="matrix(0.0950617283950617,0,0,0.0950617283950617,58.93827160493826,0)" xlink:href="#bC"/><use transform="matrix(0.0950617283950617,0,0,0.0950617283950617,66.44814814814814,0)" xlink:href="#bK"/><use transform="matrix(0.0950617283950617,0,0,0.0950617283950617,77.76049382716047,0)" xlink:href="#bv"/><use transform="matrix(0.0950617283950617,0,0,0.0950617283950617,96.77283950617282,0)" xlink:href="#by"/><use transform="matrix(0.0950617283950617,0,0,0.0950617283950617,115.78518518518516,0)" xlink:href="#bx"/><use transform="matrix(0.0950617283950617,0,0,0.0950617283950617,144.2086419753086,0)" xlink:href="#bs"/><use transform="matrix(0.0950617283950617,0,0,0.0950617283950617,163.22098765432094,0)" xlink:href="#by"/><use transform="matrix(0.0950617283950617,0,0,0.0950617283950617,182.2333333333333,0)" xlink:href="#bz"/></g><g id="P"><use transform="matrix(0.0950617283950617,0,0,0.0950617283950617,0,0)" xlink:href="#bI"/><use transform="matrix(0.0950617283950617,0,0,0.0950617283950617,19.01234567901234,0)" xlink:href="#bs"/><use transform="matrix(0.0950617283950617,0,0,0.0950617283950617,38.02469135802468,0)" xlink:href="#bL"/><use transform="matrix(0.0950617283950617,0,0,0.0950617283950617,52.56913580246912,0)" xlink:href="#bP"/></g><path fill="#1e1e1e" d="M145-31C134-9 116 4 85 4 32 4 16-35 15-94c0-59 17-99 70-100 32-1 48 14 60 33 0-11-1-24 2-32h30l-1 268h-32zM93-21c41 0 51-33 51-76s-8-73-50-73c-40 0-46 35-46 75s5 74 45 74" id="cb"/><g id="Q"><use transform="matrix(0.0950617283950617,0,0,0.0950617283950617,0,0)" xlink:href="#cb"/><use transform="matrix(0.0950617283950617,0,0,0.0950617283950617,19.01234567901234,0)" xlink:href="#bN"/><use transform="matrix(0.0950617283950617,0,0,0.0950617283950617,38.02469135802468,0)" xlink:href="#bP"/></g><g id="R"><use transform="matrix(0.0950617283950617,0,0,0.0950617283950617,0,0)" xlink:href="#bt"/><use transform="matrix(0.0950617283950617,0,0,0.0950617283950617,19.01234567901234,0)" xlink:href="#bK"/><use transform="matrix(0.0950617283950617,0,0,0.0950617283950617,30.324691358024683,0)" xlink:href="#bv"/><use transform="matrix(0.0950617283950617,0,0,0.0950617283950617,49.33703703703702,0)" xlink:href="#bI"/></g><path fill="#1e1e1e" d="M127-220V0H93v-220H8v-28h204v28h-85" id="cc"/><g id="S"><use transform="matrix(0.0950617283950617,0,0,0.0950617283950617,0,0)" xlink:href="#br"/><use transform="matrix(0.0950617283950617,0,0,0.0950617283950617,24.62098765432098,0)" xlink:href="#bs"/><use transform="matrix(0.0950617283950617,0,0,0.0950617283950617,43.633333333333326,0)" xlink:href="#bt"/><use transform="matrix(0.0950617283950617,0,0,0.0950617283950617,62.64567901234566,0)" xlink:href="#bu"/><use transform="matrix(0.0950617283950617,0,0,0.0950617283950617,70.15555555555554,0)" xlink:href="#bv"/><use transform="matrix(0.0950617283950617,0,0,0.0950617283950617,89.16790123456788,0)" xlink:href="#bw"/><use transform="matrix(0.0950617283950617,0,0,0.0950617283950617,106.27901234567898,0)" xlink:href="#bx"/><use transform="matrix(0.0950617283950617,0,0,0.0950617283950617,134.70246913580243,0)" xlink:href="#bs"/><use transform="matrix(0.0950617283950617,0,0,0.0950617283950617,153.71481481481476,0)" xlink:href="#by"/><use transform="matrix(0.0950617283950617,0,0,0.0950617283950617,172.7271604938271,0)" xlink:href="#bz"/><use transform="matrix(0.0950617283950617,0,0,0.0950617283950617,182.2333333333333,0)" xlink:href="#cc"/><use transform="matrix(0.0950617283950617,0,0,0.0950617283950617,201.15061728395057,0)" xlink:href="#bw"/><use transform="matrix(0.0950617283950617,0,0,0.0950617283950617,218.26172839506168,0)" xlink:href="#bt"/><use transform="matrix(0.0950617283950617,0,0,0.0950617283950617,237.274074074074,0)" xlink:href="#bs"/></g><g id="T"><use transform="matrix(0.0950617283950617,0,0,0.0950617283950617,0,0)" xlink:href="#bL"/><use transform="matrix(0.0950617283950617,0,0,0.0950617283950617,17.111111111111107,0)" xlink:href="#bx"/><use transform="matrix(0.0950617283950617,0,0,0.0950617283950617,45.53456790123455,0)" xlink:href="#bP"/></g><g id="U"><use transform="matrix(0.0950617283950617,0,0,0.0950617283950617,0,0)" xlink:href="#bQ"/><use transform="matrix(0.0950617283950617,0,0,0.0950617283950617,17.111111111111107,0)" xlink:href="#bv"/><use transform="matrix(0.0950617283950617,0,0,0.0950617283950617,36.12345679012345,0)" xlink:href="#by"/><use transform="matrix(0.0950617283950617,0,0,0.0950617283950617,55.13580246913579,0)" xlink:href="#bz"/><use transform="matrix(0.0950617283950617,0,0,0.0950617283950617,64.64197530864196,0)" xlink:href="#bN"/><use transform="matrix(0.0950617283950617,0,0,0.0950617283950617,83.6543209876543,0)" xlink:href="#bC"/><use transform="matrix(0.0950617283950617,0,0,0.0950617283950617,91.16419753086417,0)" xlink:href="#by"/><use transform="matrix(0.0950617283950617,0,0,0.0950617283950617,110.17654320987651,0)" xlink:href="#bs"/><use transform="matrix(0.0950617283950617,0,0,0.0950617283950617,129.18888888888887,0)" xlink:href="#bK"/></g><path fill="#1e1e1e" d="M240 0l2-218c-23 76-54 145-80 218h-23L58-218 59 0H30v-248h44l77 211c21-75 51-140 76-211h43V0h-30" id="cd"/><path fill="#1e1e1e" d="M185-189c-5-48-123-54-124 2 14 75 158 14 163 119 3 78-121 87-175 55-17-10-28-26-33-46l33-7c5 56 141 63 141-1 0-78-155-14-162-118-5-82 145-84 179-34 5 7 8 16 11 25" id="ce"/><g id="V"><use transform="matrix(0.0950617283950617,0,0,0.0950617283950617,0,0)" xlink:href="#cd"/><use transform="matrix(0.0950617283950617,0,0,0.0950617283950617,28.42345679012345,0)" xlink:href="#bv"/><use transform="matrix(0.0950617283950617,0,0,0.0950617283950617,47.435802469135794,0)" xlink:href="#bI"/><use transform="matrix(0.0950617283950617,0,0,0.0950617283950617,66.44814814814814,0)" xlink:href="#bH"/><use transform="matrix(0.0950617283950617,0,0,0.0950617283950617,85.46049382716048,0)" xlink:href="#bu"/><use transform="matrix(0.0950617283950617,0,0,0.0950617283950617,92.97037037037035,0)" xlink:href="#bs"/><use transform="matrix(0.0950617283950617,0,0,0.0950617283950617,111.98271604938269,0)" xlink:href="#ce"/><use transform="matrix(0.0950617283950617,0,0,0.0950617283950617,134.79753086419748,0)" xlink:href="#bs"/><use transform="matrix(0.0950617283950617,0,0,0.0950617283950617,153.80987654320984,0)" xlink:href="#bz"/></g><path fill="#1e1e1e" d="M115-194c53 0 69 39 70 98 0 66-23 100-70 100C84 3 66-7 56-30L54 0H23l1-261h32v101c10-23 28-34 59-34zm-8 174c40 0 45-34 45-75 0-40-5-75-45-74-42 0-51 32-51 76 0 43 10 73 51 73" id="cf"/><g id="W"><use transform="matrix(0.0950617283950617,0,0,0.0950617283950617,0,0)" xlink:href="#cf"/><use transform="matrix(0.0950617283950617,0,0,0.0950617283950617,19.01234567901234,0)" xlink:href="#bv"/><use transform="matrix(0.0950617283950617,0,0,0.0950617283950617,38.02469135802468,0)" xlink:href="#bv"/><use transform="matrix(0.0950617283950617,0,0,0.0950617283950617,57.037037037037024,0)" xlink:href="#bz"/><use transform="matrix(0.0950617283950617,0,0,0.0950617283950617,66.54320987654319,0)" xlink:href="#bF"/><use transform="matrix(0.0950617283950617,0,0,0.0950617283950617,83.6543209876543,0)" xlink:href="#bz"/><use transform="matrix(0.0950617283950617,0,0,0.0950617283950617,93.16049382716048,0)" xlink:href="#bK"/><use transform="matrix(0.0950617283950617,0,0,0.0950617283950617,104.47283950617282,0)" xlink:href="#bN"/><use transform="matrix(0.0950617283950617,0,0,0.0950617283950617,123.48518518518516,0)" xlink:href="#bt"/><use transform="matrix(0.0950617283950617,0,0,0.0950617283950617,142.4975308641975,0)" xlink:href="#bP"/></g><g id="X"><use transform="matrix(0.0950617283950617,0,0,0.0950617283950617,0,0)" xlink:href="#bt"/><use transform="matrix(0.0950617283950617,0,0,0.0950617283950617,19.01234567901234,0)" xlink:href="#bK"/><use transform="matrix(0.0950617283950617,0,0,0.0950617283950617,30.324691358024683,0)" xlink:href="#bv"/><use transform="matrix(0.0950617283950617,0,0,0.0950617283950617,49.33703703703702,0)" xlink:href="#bL"/><use transform="matrix(0.0950617283950617,0,0,0.0950617283950617,66.44814814814814,0)" xlink:href="#bC"/><use transform="matrix(0.0950617283950617,0,0,0.0950617283950617,73.958024691358,0)" xlink:href="#bF"/><use transform="matrix(0.0950617283950617,0,0,0.0950617283950617,91.0691358024691,0)" xlink:href="#bC"/><use transform="matrix(0.0950617283950617,0,0,0.0950617283950617,98.57901234567896,0)" xlink:href="#bv"/><use transform="matrix(0.0950617283950617,0,0,0.0950617283950617,117.59135802469133,0)" xlink:href="#by"/></g><g id="Y"><use transform="matrix(0.0950617283950617,0,0,0.0950617283950617,0,0)" xlink:href="#bS"/><use transform="matrix(0.0950617283950617,0,0,0.0950617283950617,24.62098765432098,0)" xlink:href="#bH"/><use transform="matrix(0.0950617283950617,0,0,0.0950617283950617,43.633333333333326,0)" xlink:href="#by"/><use transform="matrix(0.0950617283950617,0,0,0.0950617283950617,62.64567901234566,0)" xlink:href="#bO"/><use transform="matrix(0.0950617283950617,0,0,0.0950617283950617,87.26666666666665,0)" xlink:href="#bN"/><use transform="matrix(0.0950617283950617,0,0,0.0950617283950617,106.27901234567898,0)" xlink:href="#bw"/><use transform="matrix(0.0950617283950617,0,0,0.0950617283950617,123.39012345679009,0)" xlink:href="#bX"/><use transform="matrix(0.0950617283950617,0,0,0.0950617283950617,146.2049382716049,0)" xlink:href="#bQ"/><use transform="matrix(0.0950617283950617,0,0,0.0950617283950617,163.31604938271602,0)" xlink:href="#bz"/><use transform="matrix(0.0950617283950617,0,0,0.0950617283950617,172.8222222222222,0)" xlink:href="#bC"/><use transform="matrix(0.0950617283950617,0,0,0.0950617283950617,180.33209876543208,0)" xlink:href="#bv"/><use transform="matrix(0.0950617283950617,0,0,0.0950617283950617,199.34444444444443,0)" xlink:href="#by"/></g><g id="Z"><use transform="matrix(0.0950617283950617,0,0,0.0950617283950617,0,0)" xlink:href="#bI"/><use transform="matrix(0.0950617283950617,0,0,0.0950617283950617,19.01234567901234,0)" xlink:href="#bs"/><use transform="matrix(0.0950617283950617,0,0,0.0950617283950617,38.02469135802468,0)" xlink:href="#bt"/><use transform="matrix(0.0950617283950617,0,0,0.0950617283950617,57.037037037037024,0)" xlink:href="#bu"/><use transform="matrix(0.0950617283950617,0,0,0.0950617283950617,64.5469135802469,0)" xlink:href="#bv"/><use transform="matrix(0.0950617283950617,0,0,0.0950617283950617,83.55925925925924,0)" xlink:href="#bw"/><use transform="matrix(0.0950617283950617,0,0,0.0950617283950617,98.10370370370367,0)" xlink:href="#bP"/></g><g id="aa"><use transform="matrix(0.0950617283950617,0,0,0.0950617283950617,0,0)" xlink:href="#bI"/><use transform="matrix(0.0950617283950617,0,0,0.0950617283950617,19.01234567901234,0)" xlink:href="#bs"/><use transform="matrix(0.0950617283950617,0,0,0.0950617283950617,38.02469135802468,0)" xlink:href="#bF"/><use transform="matrix(0.0950617283950617,0,0,0.0950617283950617,55.13580246913579,0)" xlink:href="#bz"/><use transform="matrix(0.0950617283950617,0,0,0.0950617283950617,64.64197530864196,0)" xlink:href="#bK"/><use transform="matrix(0.0950617283950617,0,0,0.0950617283950617,75.9543209876543,0)" xlink:href="#bv"/><use transform="matrix(0.0950617283950617,0,0,0.0950617283950617,94.96666666666664,0)" xlink:href="#bw"/></g><path fill="#147eba" d="M155-56V0h-30v-56H8v-25l114-167h33v167h35v25h-35zm-30-156c-27 46-58 90-88 131h88v-131" id="cg"/><use transform="matrix(0.1055555555555555,0,0,0.1055555555555555,0,0)" xlink:href="#cg" id="ab"/><path fill="#147eba" d="M108 0H70L1-190h34L89-25l56-165h34" id="ch"/><path fill="#147eba" d="M233-177c-1 41-23 64-60 70L243 0h-38l-65-103H63V0H30v-248c88 3 205-21 203 71zM63-129c60-2 137 13 137-47 0-61-80-42-137-45v92" id="ci"/><path fill="#147eba" d="M205 0l-28-72H64L36 0H1l101-248h38L239 0h-34zm-38-99l-47-123c-12 45-31 82-46 123h93" id="cj"/><g id="ac"><use transform="matrix(0.1055555555555555,0,0,0.1055555555555555,0,0)" xlink:href="#ch"/><use transform="matrix(0.1055555555555555,0,0,0.1055555555555555,18.99999999999999,0)" xlink:href="#ci"/><use transform="matrix(0.1055555555555555,0,0,0.1055555555555555,46.33888888888886,0)" xlink:href="#cj"/></g><path fill="#147eba" d="M266 0h-40l-56-210L115 0H75L2-248h35L96-30l15-64 43-154h32l59 218 59-218h35" id="ck"/><path fill="#147eba" d="M100-194c62-1 85 37 85 99 1 63-27 99-86 99S16-35 15-95c0-66 28-99 85-99zM99-20c44 1 53-31 53-75 0-43-8-75-51-75s-53 32-53 75 10 74 51 75" id="cl"/><path fill="#147eba" d="M114-163C36-179 61-72 57 0H25l-1-190h30c1 12-1 29 2 39 6-27 23-49 58-41v29" id="cm"/><path fill="#147eba" d="M143 0L79-87 56-68V0H24v-261h32v163l83-92h37l-77 82L181 0h-38" id="cn"/><path fill="#147eba" d="M101-234c-31-9-42 10-38 44h38v23H63V0H32v-167H5v-23h27c-7-52 17-82 69-68v24" id="co"/><path fill="#147eba" d="M24 0v-261h32V0H24" id="cp"/><path fill="#147eba" d="M206 0h-36l-40-164L89 0H53L-1-190h32L70-26l43-164h34l41 164 42-164h31" id="cq"/><path fill="#147eba" d="M135-143c-3-34-86-38-87 0 15 53 115 12 119 90S17 21 10-45l28-5c4 36 97 45 98 0-10-56-113-15-118-90-4-57 82-63 122-42 12 7 21 19 24 35" id="cr"/><g id="ad"><use transform="matrix(0.1055555555555555,0,0,0.1055555555555555,0,0)" xlink:href="#ck"/><use transform="matrix(0.1055555555555555,0,0,0.1055555555555555,35.04444444444443,0)" xlink:href="#cl"/><use transform="matrix(0.1055555555555555,0,0,0.1055555555555555,56.15555555555552,0)" xlink:href="#cm"/><use transform="matrix(0.1055555555555555,0,0,0.1055555555555555,68.71666666666664,0)" xlink:href="#cn"/><use transform="matrix(0.1055555555555555,0,0,0.1055555555555555,87.71666666666663,0)" xlink:href="#co"/><use transform="matrix(0.1055555555555555,0,0,0.1055555555555555,98.27222222222218,0)" xlink:href="#cp"/><use transform="matrix(0.1055555555555555,0,0,0.1055555555555555,106.61111111111107,0)" xlink:href="#cl"/><use transform="matrix(0.1055555555555555,0,0,0.1055555555555555,127.72222222222217,0)" xlink:href="#cq"/><use transform="matrix(0.1055555555555555,0,0,0.1055555555555555,155.06111111111105,0)" xlink:href="#cr"/></g><g id="ae"><use transform="matrix(0.0950617283950617,0,0,0.0950617283950617,0,0)" xlink:href="#bU"/><use transform="matrix(0.0950617283950617,0,0,0.0950617283950617,19.01234567901234,0)" xlink:href="#bW"/></g><g id="af"><use transform="matrix(0.0950617283950617,0,0,0.0950617283950617,0,0)" xlink:href="#cf"/><use transform="matrix(0.0950617283950617,0,0,0.0950617283950617,19.01234567901234,0)" xlink:href="#bv"/><use transform="matrix(0.0950617283950617,0,0,0.0950617283950617,38.02469135802468,0)" xlink:href="#bv"/><use transform="matrix(0.0950617283950617,0,0,0.0950617283950617,57.037037037037024,0)" xlink:href="#bz"/><use transform="matrix(0.0950617283950617,0,0,0.0950617283950617,66.54320987654319,0)" xlink:href="#bF"/><use transform="matrix(0.0950617283950617,0,0,0.0950617283950617,83.6543209876543,0)" xlink:href="#bz"/><use transform="matrix(0.0950617283950617,0,0,0.0950617283950617,93.16049382716048,0)" xlink:href="#bK"/><use transform="matrix(0.0950617283950617,0,0,0.0950617283950617,104.47283950617282,0)" xlink:href="#bN"/><use transform="matrix(0.0950617283950617,0,0,0.0950617283950617,123.48518518518516,0)" xlink:href="#bt"/></g><g id="ag"><use transform="matrix(0.0950617283950617,0,0,0.0950617283950617,0,0)" xlink:href="#bI"/><use transform="matrix(0.0950617283950617,0,0,0.0950617283950617,19.01234567901234,0)" xlink:href="#bs"/><use transform="matrix(0.0950617283950617,0,0,0.0950617283950617,38.02469135802468,0)" xlink:href="#bt"/><use transform="matrix(0.0950617283950617,0,0,0.0950617283950617,57.037037037037024,0)" xlink:href="#bu"/><use transform="matrix(0.0950617283950617,0,0,0.0950617283950617,64.5469135802469,0)" xlink:href="#bv"/><use transform="matrix(0.0950617283950617,0,0,0.0950617283950617,83.55925925925924,0)" xlink:href="#bw"/></g><g id="ah"><use transform="matrix(0.0950617283950617,0,0,0.0950617283950617,0,0)" xlink:href="#bV"/><use transform="matrix(0.0950617283950617,0,0,0.0950617283950617,19.01234567901234,0)" xlink:href="#bW"/></g><g id="ai"><use transform="matrix(0.0950617283950617,0,0,0.0950617283950617,0,0)" xlink:href="#bt"/><use transform="matrix(0.0950617283950617,0,0,0.0950617283950617,19.01234567901234,0)" xlink:href="#bK"/><use transform="matrix(0.0950617283950617,0,0,0.0950617283950617,30.324691358024683,0)" xlink:href="#bv"/><use transform="matrix(0.0950617283950617,0,0,0.0950617283950617,49.33703703703702,0)" xlink:href="#bL"/><use transform="matrix(0.0950617283950617,0,0,0.0950617283950617,66.44814814814814,0)" xlink:href="#bC"/><use transform="matrix(0.0950617283950617,0,0,0.0950617283950617,73.958024691358,0)" xlink:href="#bF"/><use transform="matrix(0.0950617283950617,0,0,0.0950617283950617,91.0691358024691,0)" xlink:href="#bC"/><use transform="matrix(0.0950617283950617,0,0,0.0950617283950617,98.57901234567896,0)" xlink:href="#bv"/><use transform="matrix(0.0950617283950617,0,0,0.0950617283950617,117.59135802469133,0)" xlink:href="#by"/></g><path fill="#1e1e1e" d="M126-127c33 6 58 20 58 59 0 88-139 92-164 29-3-8-5-16-6-25l32-3c6 27 21 44 54 44 32 0 52-15 52-46 0-38-36-46-79-43v-28c39 1 72-4 72-42 0-27-17-43-46-43-28 0-47 15-49 41l-32-3c6-42 35-63 81-64 48-1 79 21 79 65 0 36-21 52-52 59" id="cs"/><g id="aj"><use transform="matrix(0.0950617283950617,0,0,0.0950617283950617,0,0)" xlink:href="#cs"/><use transform="matrix(0.0950617283950617,0,0,0.0950617283950617,19.01234567901234,0)" xlink:href="#bW"/></g><g id="ak"><use transform="matrix(0.0950617283950617,0,0,0.0950617283950617,0,0)" xlink:href="#bI"/><use transform="matrix(0.0950617283950617,0,0,0.0950617283950617,19.01234567901234,0)" xlink:href="#bs"/><use transform="matrix(0.0950617283950617,0,0,0.0950617283950617,38.02469135802468,0)" xlink:href="#bF"/><use transform="matrix(0.0950617283950617,0,0,0.0950617283950617,55.13580246913579,0)" xlink:href="#bz"/><use transform="matrix(0.0950617283950617,0,0,0.0950617283950617,64.64197530864196,0)" xlink:href="#bK"/><use transform="matrix(0.0950617283950617,0,0,0.0950617283950617,75.9543209876543,0)" xlink:href="#bv"/><use transform="matrix(0.0950617283950617,0,0,0.0950617283950617,94.96666666666664,0)" xlink:href="#bw"/></g><path fill="#1e1e1e" d="M155-56V0h-30v-56H8v-25l114-167h33v167h35v25h-35zm-30-156c-27 46-58 90-88 131h88v-131" id="ct"/><g id="al"><use transform="matrix(0.0950617283950617,0,0,0.0950617283950617,0,0)" xlink:href="#ct"/><use transform="matrix(0.0950617283950617,0,0,0.0950617283950617,19.01234567901234,0)" xlink:href="#bW"/></g><g id="am"><use transform="matrix(0.0950617283950617,0,0,0.0950617283950617,0,0)" xlink:href="#bT"/><use transform="matrix(0.0950617283950617,0,0,0.0950617283950617,11.312345679012342,0)" xlink:href="#ce"/><use transform="matrix(0.0950617283950617,0,0,0.0950617283950617,34.12716049382715,0)" xlink:href="#cs"/></g><g id="an"><use transform="matrix(0.0950617283950617,0,0,0.0950617283950617,0,0)" xlink:href="#bQ"/><use transform="matrix(0.0950617283950617,0,0,0.0950617283950617,17.111111111111107,0)" xlink:href="#bu"/><use transform="matrix(0.0950617283950617,0,0,0.0950617283950617,24.62098765432098,0)" xlink:href="#bs"/><use transform="matrix(0.0950617283950617,0,0,0.0950617283950617,43.633333333333326,0)" xlink:href="#bN"/><use transform="matrix(0.0950617283950617,0,0,0.0950617283950617,62.64567901234566,0)" xlink:href="#by"/><use transform="matrix(0.0950617283950617,0,0,0.0950617283950617,81.65802469135801,0)" xlink:href="#bH"/><use transform="matrix(0.0950617283950617,0,0,0.0950617283950617,100.67037037037035,0)" xlink:href="#bt"/></g><g id="ao"><use transform="matrix(0.0950617283950617,0,0,0.0950617283950617,0,0)" xlink:href="#bu"/><use transform="matrix(0.0950617283950617,0,0,0.0950617283950617,7.509876543209875,0)" xlink:href="#bN"/><use transform="matrix(0.0950617283950617,0,0,0.0950617283950617,26.522222222222215,0)" xlink:href="#bx"/><use transform="matrix(0.0950617283950617,0,0,0.0950617283950617,54.945679012345664,0)" xlink:href="#cf"/><use transform="matrix(0.0950617283950617,0,0,0.0950617283950617,73.958024691358,0)" xlink:href="#bI"/><use transform="matrix(0.0950617283950617,0,0,0.0950617283950617,92.97037037037035,0)" xlink:href="#bN"/></g><g id="ap"><use transform="matrix(0.0950617283950617,0,0,0.0950617283950617,0,0)" xlink:href="#bT"/><use transform="matrix(0.0950617283950617,0,0,0.0950617283950617,11.312345679012342,0)" xlink:href="#br"/><use transform="matrix(0.0950617283950617,0,0,0.0950617283950617,35.93333333333332,0)" xlink:href="#bw"/><use transform="matrix(0.0950617283950617,0,0,0.0950617283950617,53.04444444444443,0)" xlink:href="#by"/><use transform="matrix(0.0950617283950617,0,0,0.0950617283950617,72.05679012345678,0)" xlink:href="#bN"/><use transform="matrix(0.0950617283950617,0,0,0.0950617283950617,91.06913580246912,0)" xlink:href="#bx"/><use transform="matrix(0.0950617283950617,0,0,0.0950617283950617,119.49259259259259,0)" xlink:href="#bv"/></g><g id="aq"><use transform="matrix(0.0950617283950617,0,0,0.0950617283950617,0,0)" xlink:href="#bF"/><use transform="matrix(0.0950617283950617,0,0,0.0950617283950617,17.111111111111107,0)" xlink:href="#bz"/><use transform="matrix(0.0950617283950617,0,0,0.0950617283950617,26.617283950617278,0)" xlink:href="#bN"/><use transform="matrix(0.0950617283950617,0,0,0.0950617283950617,45.62962962962962,0)" xlink:href="#bz"/><use transform="matrix(0.0950617283950617,0,0,0.0950617283950617,55.13580246913579,0)" xlink:href="#bs"/></g><g id="ar"><use transform="matrix(0.0950617283950617,0,0,0.0950617283950617,0,0)" xlink:href="#bu"/><use transform="matrix(0.0950617283950617,0,0,0.0950617283950617,7.509876543209875,0)" xlink:href="#bv"/><use transform="matrix(0.0950617283950617,0,0,0.0950617283950617,26.522222222222215,0)" xlink:href="#bQ"/><use transform="matrix(0.0950617283950617,0,0,0.0950617283950617,43.633333333333326,0)" xlink:href="#bZ"/></g><g id="as"><use transform="matrix(0.0950617283950617,0,0,0.0950617283950617,0,0)" xlink:href="#bT"/><use transform="matrix(0.0950617283950617,0,0,0.0950617283950617,11.312345679012342,0)" xlink:href="#ce"/><use transform="matrix(0.0950617283950617,0,0,0.0950617283950617,34.12716049382715,0)" xlink:href="#bs"/><use transform="matrix(0.0950617283950617,0,0,0.0950617283950617,53.13950617283949,0)" xlink:href="#bQ"/><use transform="matrix(0.0950617283950617,0,0,0.0950617283950617,70.25061728395059,0)" xlink:href="#bK"/><use transform="matrix(0.0950617283950617,0,0,0.0950617283950617,81.56296296296293,0)" xlink:href="#bs"/><use transform="matrix(0.0950617283950617,0,0,0.0950617283950617,100.57530864197525,0)" xlink:href="#bz"/><use transform="matrix(0.0950617283950617,0,0,0.0950617283950617,110.08148148148143,0)" xlink:href="#bF"/></g><g id="at"><use transform="matrix(0.0950617283950617,0,0,0.0950617283950617,0,0)" xlink:href="#bT"/><use transform="matrix(0.0950617283950617,0,0,0.0950617283950617,11.312345679012342,0)" xlink:href="#ca"/><use transform="matrix(0.0950617283950617,0,0,0.0950617283950617,34.12716049382715,0)" xlink:href="#bA"/><use transform="matrix(0.0950617283950617,0,0,0.0950617283950617,58.74814814814813,0)" xlink:href="#bV"/></g><path fill="#1e1e1e" d="M194 0L95-120 63-95V0H30v-248h33v124l119-124h40L117-140 236 0h-42" id="cu"/><g id="au"><use transform="matrix(0.0950617283950617,0,0,0.0950617283950617,0,0)" xlink:href="#cu"/><use transform="matrix(0.0950617283950617,0,0,0.0950617283950617,22.81481481481481,0)" xlink:href="#bs"/><use transform="matrix(0.0950617283950617,0,0,0.0950617283950617,41.82716049382715,0)" xlink:href="#bw"/></g><g id="av"><use transform="matrix(0.0950617283950617,0,0,0.0950617283950617,0,0)" xlink:href="#bJ"/><use transform="matrix(0.0950617283950617,0,0,0.0950617283950617,22.81481481481481,0)" xlink:href="#bK"/><use transform="matrix(0.0950617283950617,0,0,0.0950617283950617,34.12716049382715,0)" xlink:href="#bv"/><use transform="matrix(0.0950617283950617,0,0,0.0950617283950617,53.13950617283949,0)" xlink:href="#bL"/><use transform="matrix(0.0950617283950617,0,0,0.0950617283950617,70.25061728395059,0)" xlink:href="#bC"/><use transform="matrix(0.0950617283950617,0,0,0.0950617283950617,77.76049382716046,0)" xlink:href="#bI"/><use transform="matrix(0.0950617283950617,0,0,0.0950617283950617,96.7728395061728,0)" xlink:href="#bs"/><use transform="matrix(0.0950617283950617,0,0,0.0950617283950617,115.78518518518513,0)" xlink:href="#bK"/></g><g id="aw"><use transform="matrix(0.0950617283950617,0,0,0.0950617283950617,0,0)" xlink:href="#cu"/><use transform="matrix(0.0950617283950617,0,0,0.0950617283950617,22.81481481481481,0)" xlink:href="#bs"/><use transform="matrix(0.0950617283950617,0,0,0.0950617283950617,41.82716049382715,0)" xlink:href="#bw"/><use transform="matrix(0.0950617283950617,0,0,0.0950617283950617,58.93827160493826,0)" xlink:href="#bF"/></g><g id="ax"><use transform="matrix(0.0950617283950617,0,0,0.0950617283950617,0,0)" xlink:href="#ce"/><use transform="matrix(0.0950617283950617,0,0,0.0950617283950617,22.81481481481481,0)" xlink:href="#bv"/><use transform="matrix(0.0950617283950617,0,0,0.0950617283950617,41.82716049382715,0)" xlink:href="#bH"/><use transform="matrix(0.0950617283950617,0,0,0.0950617283950617,60.83950617283949,0)" xlink:href="#bK"/><use transform="matrix(0.0950617283950617,0,0,0.0950617283950617,72.15185185185183,0)" xlink:href="#bQ"/><use transform="matrix(0.0950617283950617,0,0,0.0950617283950617,89.26296296296294,0)" xlink:href="#bs"/></g><path fill="#1e1e1e" d="M232-93c-1 65-40 97-104 97C67 4 28-28 28-90v-158h33c8 89-33 224 67 224 102 0 64-133 71-224h33v155" id="cv"/><g id="ay"><use transform="matrix(0.0950617283950617,0,0,0.0950617283950617,0,0)" xlink:href="#cv"/><use transform="matrix(0.0950617283950617,0,0,0.0950617283950617,24.62098765432098,0)" xlink:href="#bt"/><use transform="matrix(0.0950617283950617,0,0,0.0950617283950617,43.633333333333326,0)" xlink:href="#bu"/><use transform="matrix(0.0950617283950617,0,0,0.0950617283950617,51.14320987654321,0)" xlink:href="#bv"/><use transform="matrix(0.0950617283950617,0,0,0.0950617283950617,70.15555555555554,0)" xlink:href="#bN"/><use transform="matrix(0.0950617283950617,0,0,0.0950617283950617,89.16790123456788,0)" xlink:href="#bI"/></g></defs></g></svg>